<svg width="28" height="28" viewBox="0 0 28 28" fill="none" xmlns="http://www.w3.org/2000/svg">
    <path
        d="M15.2231 22.6551C14.5931 22.6551 13.9281 22.5967 13.2048 22.4801L7.73311 21.6167C6.00645 21.3484 4.67645 20.8701 3.68478 20.1701C1.12978 18.3967 1.28145 15.3517 1.60811 13.2167L2.47145 7.74506C3.26478 2.72839 5.85478 0.850058 10.8714 1.63172L16.3431 2.49506C18.9214 2.90339 22.3864 3.94172 22.6081 8.29339C22.6548 9.04006 22.6081 9.89172 22.4448 10.8951L21.5931 16.3667C20.9164 20.6484 18.9214 22.6551 15.2231 22.6551ZM8.78311 3.20672C6.00645 3.20672 4.74645 4.61839 4.19811 8.02506L3.33478 13.4967C2.79811 16.9384 3.77811 18.1051 4.68811 18.7467C5.45811 19.2951 6.54311 19.6684 8.00145 19.8901L13.4731 20.7534C17.5448 21.3951 19.2248 20.1701 19.8664 16.0867L20.7181 10.6151C20.8581 9.74006 20.9048 9.00506 20.8581 8.38672V8.37506C20.7298 5.92506 19.3414 4.72339 16.0631 4.21006L10.6031 3.35839C9.92645 3.25339 9.33145 3.20672 8.78311 3.20672Z"
        fill="currentColor" />
    <path
        d="M17.1255 26.5405C16.1338 26.5405 15.0138 26.3305 13.7188 25.8988L8.45716 24.1488C5.45883 23.1571 3.83716 21.7338 3.34716 19.6571C3.2655 19.3071 3.4055 18.9338 3.70883 18.7355C4.01216 18.5371 4.40883 18.5371 4.7005 18.7471C5.4705 19.2955 6.54383 19.6688 8.00216 19.8905L13.4738 20.7538C17.5455 21.3955 19.2255 20.1705 19.8672 16.0871L20.7188 10.6155C20.8588 9.74047 20.9055 9.00547 20.8588 8.38714C20.8472 8.0838 20.9988 7.78047 21.2672 7.60547C21.5355 7.43047 21.8738 7.4188 22.1538 7.57047C25.2805 9.2388 26.1088 11.9105 24.7555 15.9938L23.0055 21.2555C22.1772 23.7288 21.0922 25.2455 19.5755 26.0038C18.8405 26.3655 18.0355 26.5405 17.1255 26.5405ZM6.68383 21.4188C7.24383 21.7921 7.9905 22.1538 9.0055 22.4921L14.2672 24.2421C16.2738 24.9071 17.7088 24.9655 18.7822 24.4405C19.8555 23.9038 20.6722 22.7138 21.3372 20.7071L23.0872 15.4455C24.0438 12.5521 23.6705 11.0121 22.5622 9.9738C22.5388 10.2655 22.4922 10.5688 22.4455 10.8955L21.5938 16.3671C20.8005 21.3838 18.2105 23.2621 13.1938 22.4921L7.72216 21.6288C7.3605 21.5588 7.0105 21.4888 6.68383 21.4188Z"
        fill="currentColor" />
    <path
        d="M9.61203 11.3413C8.0137 11.3413 6.70703 10.0346 6.70703 8.43625C6.70703 6.83792 8.0137 5.53125 9.61203 5.53125C11.2104 5.53125 12.517 6.83792 12.517 8.43625C12.517 10.0346 11.2104 11.3413 9.61203 11.3413ZM9.61203 7.29292C8.98203 7.29292 8.45703 7.80625 8.45703 8.44792C8.45703 9.08958 8.97036 9.60292 9.61203 9.60292C10.242 9.60292 10.767 9.08958 10.767 8.44792C10.767 7.80625 10.242 7.29292 9.61203 7.29292Z"
        fill="currentColor" />
</svg>