<svg width="24" height="24" viewBox="0 0 24 24" fill="none" xmlns="http://www.w3.org/2000/svg">
<path d="M8.12787 10.896C10.7987 10.896 12.9639 8.73083 12.9639 6.05998C12.9639 3.38913 10.7987 1.22398 8.12787 1.22398C5.45702 1.22398 3.29187 3.38913 3.29187 6.05998C3.29187 8.73083 5.45702 10.896 8.12787 10.896Z" fill="currentColor"/>
<path d="M0.390259 18.7824C0.390259 15.4952 3.05506 12.8304 6.34226 12.8304H9.91345C13.2007 12.8304 15.8655 15.4952 15.8655 18.7824V21.0144C15.8655 21.8362 15.1993 22.5024 14.3775 22.5024H1.87826C1.05646 22.5024 0.390259 21.8362 0.390259 21.0144V18.7824Z" fill="currentColor"/>
<path d="M16.8327 12.8304C18.4352 12.8304 19.7343 11.5313 19.7343 9.92878C19.7343 8.32627 18.4352 7.02718 16.8327 7.02718C15.2302 7.02718 13.9311 8.32627 13.9311 9.92878C13.9311 11.5313 15.2302 12.8304 16.8327 12.8304Z" fill="currentColor"/>
<path d="M18.7671 9.92878V2.19118L21.6687 3.15838" stroke="currentColor" stroke-width="1.488" stroke-linecap="round" stroke-linejoin="round"/>
</svg>
