<svg width="26" height="26" viewBox="0 0 26 26" fill="none" xmlns="http://www.w3.org/2000/svg">
<path d="M17.5753 2.52237H8.84668C5.05525 2.52237 2.79498 4.78264 2.79498 8.57407V17.2923C2.79498 21.0941 5.05525 23.3544 8.84668 23.3544H17.5649C21.3563 23.3544 23.6166 21.0941 23.6166 17.3027V8.57407C23.627 4.78264 21.3667 2.52237 17.5753 2.52237ZM10.2008 18.0422C10.2008 18.3339 9.97161 18.563 9.67996 18.563H6.7739C6.48225 18.563 6.2531 18.3339 6.2531 18.0422V13.23C6.2531 12.5738 6.78431 12.0426 7.44052 12.0426H9.67996C9.97161 12.0426 10.2008 12.2717 10.2008 12.5634V18.0422ZM15.1796 18.0422C15.1796 18.3339 14.9505 18.563 14.6588 18.563H11.7527C11.4611 18.563 11.2319 18.3339 11.2319 18.0422V8.50115C11.2319 7.84495 11.7632 7.31373 12.4194 7.31373H14.0026C14.6588 7.31373 15.19 7.84495 15.19 8.50115V18.0422H15.1796ZM20.1689 18.0422C20.1689 18.3339 19.9397 18.563 19.6481 18.563H16.742C16.4504 18.563 16.2212 18.3339 16.2212 18.0422V14.3445C16.2212 14.0529 16.4504 13.8237 16.742 13.8237H18.9814C19.6377 13.8237 20.1689 14.3549 20.1689 15.0112V18.0422Z" fill="currentColor"/>
</svg>
