<svg width="21" height="26" viewBox="0 0 21 26" fill="none" xmlns="http://www.w3.org/2000/svg">
    <path
        d="M6.74707 5.59766C7.56746 5.40618 8.38768 5.92645 8.5791 6.74707L10.0566 13.0928C9.83791 12.2175 10.4667 11.3145 11.3965 11.2324C12.162 11.1506 12.8731 11.6981 13.0371 12.4639L13.2012 13.2021C12.9825 12.3269 13.6113 11.4248 14.541 11.3428C15.3067 11.2607 16.0176 11.8073 16.1816 12.5732L16.3457 13.3115C16.1271 12.4364 16.756 11.5343 17.6855 11.4521C18.4512 11.3701 19.1621 11.9167 19.3262 12.71L19.9551 15.4727C20.502 17.9072 20.338 20.424 19.4629 22.667L18.998 23.8428C18.7519 24.4719 18.2051 24.9374 17.5488 25.1016C17.5154 25.1092 14.2113 25.8676 13.7754 25.9766C13.3379 26.0586 12.5996 25.9492 11.834 25.6484C11.0683 25.3475 9.48163 24.6091 7.43066 22.7764C5.81726 21.3266 3.93067 19.0557 3.87598 18.9736C3.35665 18.3445 3.46599 17.3879 4.09473 16.8682C4.72369 16.3484 5.68062 16.4578 6.2002 17.0869C6.22754 17.0869 7.18456 18.2351 7.9502 19.0557C8.08693 19.1651 8.27832 19.0557 8.25098 18.8916L5.59863 7.43066C5.40725 6.61011 5.92678 5.78919 6.74707 5.59766ZM2.88965 7.46191C3.19038 7.37987 3.51844 7.57133 3.60059 7.89941C3.68262 8.22766 3.49124 8.52829 3.16309 8.61035L0.729492 9.18555C0.428865 9.26745 0.100758 9.07596 0.0185547 8.74805C-0.0634822 8.44716 0.127913 8.1182 0.456055 8.03613L2.88965 7.46191ZM13.417 4.99023C13.7177 4.9082 14.0458 5.09967 14.1279 5.42773C14.21 5.72863 14.0186 6.05759 13.6904 6.13965L11.2568 6.71387C10.9562 6.79586 10.6281 6.60435 10.5459 6.27637C10.4639 5.94812 10.6552 5.61916 10.9834 5.56445L13.417 4.99023ZM0.919922 3.27246C1.08389 2.99911 1.46681 2.9164 1.74023 3.08008L3.87402 4.39355C4.14718 4.55769 4.22918 4.94043 4.06543 5.21387C3.95615 5.3505 3.81921 5.45982 3.68262 5.4873C3.51859 5.51465 3.35448 5.48728 3.21777 5.40527L1.11133 4.09277C0.838225 3.92867 0.756284 3.54589 0.919922 3.27246ZM10.1074 1.11621C10.2715 0.842841 10.6543 0.760786 10.9277 0.924805C11.2011 1.08887 11.283 1.4716 11.1191 1.74512L9.80664 3.87891C9.6973 4.01562 9.5605 4.12493 9.42383 4.15234C9.25975 4.1797 9.09572 4.15237 8.95898 4.07031C8.68556 3.90618 8.60351 3.52352 8.76758 3.25L10.1074 1.11621ZM5.43457 0.0185547C5.76246 -0.0631646 6.09069 0.128193 6.14551 0.483398L6.71973 2.91797C6.80174 3.21878 6.61021 3.5477 6.28223 3.62988C5.95407 3.68459 5.62598 3.49231 5.57129 3.16406L4.99609 0.730469C4.91406 0.429576 5.10642 0.100616 5.43457 0.0185547Z"
        fill="currentColor" />
</svg>