<svg width="40" height="40" viewBox="0 0 40 40" fill="none" xmlns="http://www.w3.org/2000/svg">
<circle cx="20" cy="20" r="20" fill="#0095FF"/>
<path d="M14.6797 12.542C15.4918 12.3527 16.3037 12.8675 16.4932 13.6797L17.9551 19.9609C17.7386 19.0946 18.3617 18.2013 19.2822 18.1201C20.0402 18.0389 20.7446 18.5799 20.9072 19.3379L21.0693 20.0693C20.8528 19.2031 21.4752 18.31 22.3955 18.2285C23.1535 18.1473 23.8579 18.6883 24.0205 19.4463L24.1826 20.1777C23.966 19.3113 24.5892 18.4181 25.5098 18.3369C26.2678 18.2557 26.9713 18.7969 27.1338 19.582L27.7568 22.3164C28.2983 24.7261 28.1359 27.2173 27.2695 29.4375L26.8096 30.6016C26.5659 31.2243 26.0238 31.6852 25.374 31.8477C25.3371 31.8561 22.0685 32.6062 21.6377 32.7139C21.2045 32.795 20.4738 32.6864 19.7158 32.3887C18.9577 32.0908 17.3871 31.3599 15.3564 29.5459C13.759 28.1109 11.8901 25.8635 11.8359 25.7822C11.3218 25.1595 11.4301 24.2116 12.0527 23.6973C12.6754 23.1829 13.6232 23.2914 14.1377 23.9141C14.1648 23.9141 15.113 25.051 15.8711 25.8633C16.0064 25.9714 16.1959 25.8635 16.1689 25.7012L13.542 14.3564C13.3525 13.5442 13.8674 12.7315 14.6797 12.542ZM10.8613 14.3828C11.1591 14.3016 11.4842 14.4915 11.5654 14.8164C11.6466 15.1412 11.4576 15.4392 11.1328 15.5205L8.72266 16.0889C8.42483 16.1701 8.09978 15.9802 8.01855 15.6553C7.93767 15.3576 8.12742 15.0333 8.45215 14.9521L10.8613 14.3828ZM21.2861 11.9463C21.5839 11.8652 21.909 12.055 21.9902 12.3799C22.0712 12.6776 21.8814 13.0028 21.5566 13.084L19.1465 13.6523C18.8488 13.7332 18.5245 13.5435 18.4434 13.2188C18.3622 12.8939 18.5512 12.5689 18.876 12.5146L21.2861 11.9463ZM8.91211 10.2402C9.07462 9.9697 9.45394 9.88847 9.72461 10.0508L11.8369 11.3506C12.1074 11.5131 12.1887 11.8924 12.0264 12.1631C11.9181 12.2985 11.7819 12.4065 11.6465 12.4336C11.4842 12.4606 11.3218 12.4337 11.1865 12.3525L9.10156 11.0527C8.83102 10.8902 8.74971 10.5109 8.91211 10.2402ZM18.0098 8.10254C18.1722 7.83181 18.5515 7.74972 18.8223 7.91211C19.093 8.07453 19.174 8.45386 19.0117 8.72461L17.7119 10.8369C17.6037 10.9722 17.4683 11.0803 17.333 11.1074C17.1707 11.1345 17.0084 11.1074 16.873 11.0264C16.6023 10.8639 16.5211 10.4846 16.6836 10.2139L18.0098 8.10254ZM13.3799 7.01855C13.7046 6.9374 14.0297 7.12681 14.084 7.47852L14.6523 9.88867C14.7336 10.1865 14.5437 10.5115 14.2188 10.5928C13.8941 10.6467 13.57 10.4573 13.5156 10.1328L12.9463 7.72266C12.8651 7.42484 13.055 7.09978 13.3799 7.01855Z" fill="white"/>
</svg>
