<svg width="32" height="32" viewBox="0 0 32 32" fill="none" xmlns="http://www.w3.org/2000/svg">
    <mask id="mask0_193_33139" style="mask-type:luminance" maskUnits="userSpaceOnUse" x="0" y="0"
        width="32" height="32">
        <rect width="32" height="32" fill="white" />
    </mask>
    <g mask="url(#mask0_193_33139)">
        <path
            d="M10.3484 5.72461C11.3629 5.56663 12.3688 6.09492 12.7986 7.03125H12.8005C12.8034 7.03714 12.8056 7.04388 12.8083 7.0498C12.8104 7.05431 12.8132 7.05897 12.8152 7.06348H12.8142C12.9141 7.27507 12.9817 7.50061 13.0125 7.73242L13.0164 7.75977L13.0183 7.78711L13.3894 13.3076L13.574 16.082L13.575 16.1074V16.1328C13.5763 16.3177 13.6044 16.5015 13.656 16.6787C13.7448 16.8566 13.9377 16.9778 14.1599 16.9707L23.0193 16.3926L23.0408 16.3906H23.0613C23.6656 16.3808 24.2527 16.6065 24.6921 17.0234L24.824 17.1592C25.0742 17.4395 25.2507 17.7768 25.3376 18.1396L25.3728 18.3242L25.3777 18.3525L25.3796 18.3809L25.3953 18.5674L25.4011 18.6338L25.3962 18.7002C25.0009 24.1723 20.9847 28.7208 15.5496 29.8936C10.1163 31.0657 4.53392 28.592 1.8396 23.7949L1.83862 23.792C1.06002 22.3948 0.57269 20.8581 0.406982 19.2725L0.407959 19.2715C0.340731 18.802 0.309586 18.3277 0.318115 17.8535C0.317488 11.9939 4.49143 6.94801 10.3054 5.73242L10.3484 5.72461ZM10.6228 7.40234C5.58674 8.46971 2.01122 12.8381 2.01831 17.8672V18.1787C2.02285 18.3753 2.03573 18.572 2.0564 18.7676L2.09351 19.0596L2.09644 19.0771L2.09839 19.0957C2.23999 20.4507 2.65566 21.7653 3.32202 22.9619C5.64413 27.0964 10.4729 29.2494 15.1912 28.2314C19.8881 27.2179 23.3322 23.3089 23.6951 18.6338L23.6902 18.5723C23.6704 18.4554 23.6138 18.3438 23.5222 18.2568C23.4102 18.1506 23.256 18.0893 23.0935 18.0908L14.2546 18.6689L14.2332 18.6709C13.3042 18.7083 12.438 18.1722 12.075 17.3096L12.0593 17.2734L12.0476 17.2363C11.9408 16.899 11.885 16.5481 11.8777 16.1953L11.6931 13.4209L11.325 7.94727C11.3164 7.88981 11.3 7.83298 11.2742 7.78027L11.2664 7.76465L11.2585 7.74805C11.1561 7.51563 10.8996 7.36496 10.6228 7.40234ZM15.6814 1.81836C22.1569 1.98311 27.6189 6.64126 28.6716 12.9424L28.699 13.1025L28.6648 13.2607L28.655 13.3047L28.6501 13.3252L28.6511 13.3447V13.3789L28.6492 13.4141C28.6272 13.7772 28.5023 14.1269 28.2888 14.4219L28.1912 14.5449C27.9071 14.8765 27.5215 15.1 27.1003 15.1865L27.072 15.1924L27.0447 15.1963L26.8982 15.2158L26.8679 15.2197L26.8376 15.2217L16.5964 15.8857L16.5955 15.8848C16.0306 15.9323 15.4675 15.749 15.0427 15.3701C14.682 15.0482 14.4486 14.6102 14.3826 14.1357L14.3787 14.1064L14.3767 14.0762L13.6941 3.91211C13.6736 3.79377 13.6751 3.67279 13.697 3.55469C13.7391 3.07942 13.9567 2.63721 14.3103 2.31641L14.3113 2.31738C14.6858 1.97761 15.1786 1.80023 15.6814 1.81836ZM15.6218 3.5166C15.5569 3.51382 15.4958 3.5364 15.4529 3.5752V3.57617C15.4103 3.61481 15.3883 3.66502 15.3865 3.71387L15.3855 3.73535L16.0681 13.9121C16.0802 13.9814 16.1162 14.0483 16.1746 14.1006C16.2487 14.1667 16.3523 14.2019 16.4587 14.1914L16.4724 14.1904L16.4871 14.1895L26.6951 13.5273L26.7664 13.5176C26.8202 13.5046 26.8665 13.4773 26.8992 13.4395C26.9289 13.4046 26.944 13.3641 26.949 13.3242L26.947 13.207L26.9431 13.0244L26.9529 13.001C25.9481 7.63717 21.2452 3.65925 15.6384 3.5166H15.6218Z"
            fill="currentColor" />
    </g>
</svg>