<svg width="28" height="28" viewBox="0 0 28 28" fill="none" xmlns="http://www.w3.org/2000/svg">
    <path
        d="M8.02661 22.0498C7.54828 22.0498 7.15161 21.6531 7.15161 21.1748V18.7598C7.15161 18.2814 7.54828 17.8848 8.02661 17.8848C8.50494 17.8848 8.90161 18.2814 8.90161 18.7598V21.1748C8.90161 21.6648 8.50494 22.0498 8.02661 22.0498Z"
        fill="currentColor" />
    <path
        d="M14 22.0497C13.5217 22.0497 13.125 21.653 13.125 21.1747V16.333C13.125 15.8547 13.5217 15.458 14 15.458C14.4783 15.458 14.875 15.8547 14.875 16.333V21.1747C14.875 21.6647 14.4783 22.0497 14 22.0497Z"
        fill="currentColor" />
    <path
        d="M19.9734 22.0496C19.4951 22.0496 19.0984 21.653 19.0984 21.1746V13.918C19.0984 13.4396 19.4951 13.043 19.9734 13.043C20.4517 13.043 20.8484 13.4396 20.8484 13.918V21.1746C20.8484 21.6646 20.4634 22.0496 19.9734 22.0496Z"
        fill="currentColor" />
    <path
        d="M8.02675 15.3767C7.63009 15.3767 7.28009 15.1083 7.17509 14.7117C7.05842 14.245 7.33842 13.7667 7.81675 13.65C12.1101 12.5767 15.8901 10.2317 18.7718 6.88332L19.3084 6.25332C19.6234 5.89165 20.1718 5.84499 20.5451 6.15999C20.9068 6.47499 20.9534 7.02332 20.6384 7.39665L20.1018 8.02665C16.9868 11.6667 12.8801 14.1983 8.23675 15.3533C8.16675 15.3767 8.09675 15.3767 8.02675 15.3767Z"
        fill="currentColor" />
    <path
        d="M19.9733 11.1069C19.4949 11.1069 19.0983 10.7102 19.0983 10.2319V7.7002H16.5549C16.0766 7.7002 15.6799 7.30353 15.6799 6.8252C15.6799 6.34686 16.0766 5.9502 16.5549 5.9502H19.9733C20.4516 5.9502 20.8483 6.34686 20.8483 6.8252V10.2435C20.8483 10.7219 20.4633 11.1069 19.9733 11.1069Z"
        fill="currentColor" />
    <path
        d="M17.4999 26.5413H10.4999C4.16492 26.5413 1.45825 23.8347 1.45825 17.4997V10.4997C1.45825 4.16467 4.16492 1.45801 10.4999 1.45801H17.4999C23.8349 1.45801 26.5416 4.16467 26.5416 10.4997V17.4997C26.5416 23.8347 23.8349 26.5413 17.4999 26.5413ZM10.4999 3.20801C5.12159 3.20801 3.20825 5.12134 3.20825 10.4997V17.4997C3.20825 22.878 5.12159 24.7913 10.4999 24.7913H17.4999C22.8783 24.7913 24.7916 22.878 24.7916 17.4997V10.4997C24.7916 5.12134 22.8783 3.20801 17.4999 3.20801H10.4999Z"
        fill="currentColor" />
</svg>