<svg width="42" height="42" viewBox="0 0 42 42" fill="none" xmlns="http://www.w3.org/2000/svg">
    <path opacity="0.4"
        d="M31.5715 23.7125C30.8365 24.43 30.4165 25.4625 30.5215 26.565C30.679 28.455 32.4115 29.8375 34.3015 29.8375H37.6265V31.92C37.6265 35.5425 34.669 38.5 31.0465 38.5H10.9565C7.33397 38.5 4.37646 35.5425 4.37646 31.92V20.1425C4.37646 16.52 7.33397 13.5625 10.9565 13.5625H31.0465C34.669 13.5625 37.6265 16.52 37.6265 20.1425V22.6625H34.0915C33.1115 22.6625 32.219 23.0475 31.5715 23.7125Z"
        fill="currentColor" />
    <path
        d="M25.989 6.91235V13.5623H10.9565C7.33397 13.5623 4.37646 16.5198 4.37646 20.1423V13.7199C4.37646 11.6374 5.65397 9.7823 7.59647 9.0473L21.4915 3.7973C23.6615 2.9923 25.989 4.58485 25.989 6.91235Z"
        fill="currentColor" />
    <path
        d="M39.4823 24.447V28.0521C39.4823 29.0146 38.7123 29.8021 37.7323 29.8371H34.3023C32.4123 29.8371 30.6798 28.4546 30.5223 26.5646C30.4173 25.4621 30.8373 24.4296 31.5723 23.7121C32.2198 23.0471 33.1123 22.6621 34.0923 22.6621H37.7323C38.7123 22.6971 39.4823 23.4845 39.4823 24.447Z"
        fill="currentColor" />
    <path
        d="M24.502 22.3125H12.252C11.5345 22.3125 10.9395 21.7175 10.9395 21C10.9395 20.2825 11.5345 19.6875 12.252 19.6875H24.502C25.2195 19.6875 25.8145 20.2825 25.8145 21C25.8145 21.7175 25.2195 22.3125 24.502 22.3125Z"
        fill="currentColor" />
</svg>