<svg width="40" height="40" viewBox="0 0 40 40" fill="none" xmlns="http://www.w3.org/2000/svg">
<circle cx="20" cy="20" r="20" fill="#FA5A7D"/>
<path d="M19.9109 26.6154C18.7888 26.6154 17.7127 26.1696 16.9193 25.3762C16.1259 24.5828 15.6801 23.5067 15.6801 22.3846C15.6801 21.2625 16.1259 20.1864 16.9193 19.393C17.7127 18.5996 18.7888 18.1538 19.9109 18.1538C21.033 18.1538 22.1091 18.5996 22.9025 19.393C23.6959 20.1864 24.1417 21.2625 24.1417 22.3846C24.1417 23.5067 23.6959 24.5828 22.9025 25.3762C22.1091 26.1696 21.033 26.6154 19.9109 26.6154ZM19.9109 19.8462C19.2376 19.8462 18.592 20.1136 18.1159 20.5897C17.6399 21.0657 17.3724 21.7114 17.3724 22.3846C17.3724 23.0579 17.6399 23.7035 18.1159 24.1796C18.592 24.6556 19.2376 24.9231 19.9109 24.9231C20.5841 24.9231 21.2298 24.6556 21.7058 24.1796C22.1819 23.7035 22.4493 23.0579 22.4493 22.3846C22.4493 21.7114 22.1819 21.0657 21.7058 20.5897C21.2298 20.1136 20.5841 19.8462 19.9109 19.8462ZM19.9109 30C15.7231 30 11.7129 27.7751 8.90758 23.8959C8.58932 23.4564 8.41797 22.9272 8.41797 22.3846C8.41797 21.842 8.58932 21.3132 8.90758 20.8737C11.7129 16.9941 15.7231 14.7692 19.9109 14.7692C24.0987 14.7692 28.1088 16.9941 30.9142 20.8733C31.2324 21.3129 31.4038 21.8417 31.4038 22.3844C31.4038 22.9271 31.2324 23.4559 30.9142 23.8955C28.1088 27.7751 24.0987 30 19.9109 30ZM10.2793 22.9044C12.7987 26.3885 16.2189 28.3077 19.9109 28.3077C23.6029 28.3077 27.0231 26.3885 29.5425 22.9044C29.652 22.7532 29.711 22.5712 29.711 22.3844C29.711 22.1977 29.652 22.0157 29.5425 21.8645C27.0231 18.3807 23.6029 16.4615 19.9109 16.4615C16.2189 16.4615 12.7987 18.3807 10.2793 21.8648C10.1697 22.0161 10.1107 22.198 10.1107 22.3848C10.1107 22.5715 10.1697 22.7532 10.2793 22.9044ZM19.0647 8.84615V13.0769C19.0647 13.3013 19.1539 13.5166 19.3126 13.6752C19.4712 13.8339 19.6865 13.9231 19.9109 13.9231C20.1353 13.9231 20.3505 13.8339 20.5092 13.6752C20.6679 13.5166 20.757 13.3013 20.757 13.0769V8.84615C20.757 8.62174 20.6679 8.40652 20.5092 8.24783C20.3505 8.08915 20.1353 8 19.9109 8C19.6865 8 19.4712 8.08915 19.3126 8.24783C19.1539 8.40652 19.0647 8.62174 19.0647 8.84615ZM30.3803 12.0006L27.6601 15.2414C27.5143 15.4081 27.309 15.5109 27.0882 15.5279C26.8674 15.5449 26.6487 15.4746 26.4791 15.3322C26.3095 15.1897 26.2025 14.9865 26.1811 14.7661C26.1597 14.5457 26.2255 14.3257 26.3645 14.1532L29.0847 10.9125C29.2305 10.7458 29.4359 10.6429 29.6567 10.626C29.8775 10.609 30.0961 10.6792 30.2657 10.8217C30.4353 10.9641 30.5423 11.1673 30.5637 11.3877C30.5852 11.6082 30.5193 11.8282 30.3803 12.0006ZM10.7371 10.9124L13.4573 14.1531C13.5967 14.3255 13.6629 14.5457 13.6416 14.7664C13.6204 14.9871 13.5133 15.1906 13.3436 15.3332C13.1738 15.4758 12.9549 15.546 12.7338 15.5289C12.5128 15.5117 12.3073 15.4085 12.1616 15.2414L9.44142 12.0006C9.302 11.8282 9.23581 11.608 9.25707 11.3874C9.27833 11.1667 9.38535 10.9632 9.55511 10.8206C9.72487 10.678 9.94381 10.6077 10.1648 10.6249C10.3859 10.6421 10.5913 10.7453 10.7371 10.9124Z" fill="white"/>
</svg>
