<svg width="40" height="40" viewBox="0 0 40 40" fill="none" xmlns="http://www.w3.org/2000/svg">
<circle cx="20" cy="20" r="20" fill="#8950FC"/>
<path d="M29.25 17.1497C26.94 13.5197 23.56 11.4297 20 11.4297C18.22 11.4297 16.49 11.9497 14.91 12.9197C13.33 13.8997 11.91 15.3297 10.75 17.1497C9.75 18.7197 9.75 21.2697 10.75 22.8397C13.06 26.4797 16.44 28.5597 20 28.5597C21.78 28.5597 23.51 28.0397 25.09 27.0697C26.67 26.0897 28.09 24.6597 29.25 22.8397C30.25 21.2797 30.25 18.7197 29.25 17.1497ZM20 24.0397C17.76 24.0397 15.96 22.2297 15.96 19.9997C15.96 17.7697 17.76 15.9597 20 15.9597C22.24 15.9597 24.04 17.7697 24.04 19.9997C24.04 22.2297 22.24 24.0397 20 24.0397Z" fill="white"/>
<path d="M19.9984 17.1406C18.4284 17.1406 17.1484 18.4206 17.1484 20.0006C17.1484 21.5706 18.4284 22.8506 19.9984 22.8506C21.5684 22.8506 22.8584 21.5706 22.8584 20.0006C22.8584 18.4306 21.5684 17.1406 19.9984 17.1406Z" fill="white"/>
</svg>
