<svg width="28" height="28" viewBox="0 0 28 28" fill="none" xmlns="http://www.w3.org/2000/svg">
    <path
        d="M13.3699 16.8936C11.0832 16.8936 9.21655 15.0269 9.21655 12.7402C9.21655 10.4536 11.0832 8.58691 13.3699 8.58691C15.6565 8.58691 17.5232 10.4536 17.5232 12.7402C17.5232 15.0269 15.6565 16.8936 13.3699 16.8936ZM13.3699 10.3486C12.0515 10.3486 10.9666 11.4219 10.9666 12.7519C10.9666 14.0819 12.0399 15.1553 13.3699 15.1553C14.6999 15.1553 15.7732 14.0819 15.7732 12.7519C15.7732 11.4219 14.6999 10.3486 13.3699 10.3486Z"
        fill="currentColor" />
    <path
        d="M19.4249 24.4419C18.9466 24.4419 18.5499 24.0452 18.5499 23.5669C18.5499 21.3269 16.2283 19.5068 13.3699 19.5068C10.5116 19.5068 8.18994 21.3269 8.18994 23.5669C8.18994 24.0452 7.79327 24.4419 7.31494 24.4419C6.83661 24.4419 6.43994 24.0452 6.43994 23.5669C6.43994 20.3702 9.54327 17.7568 13.3699 17.7568C17.1966 17.7568 20.2999 20.3586 20.2999 23.5669C20.2999 24.0452 19.9033 24.4419 19.4249 24.4419Z"
        fill="currentColor" />
    <path
        d="M13.4166 26.5417C6.82492 26.5417 1.45825 21.175 1.45825 14.5833C1.45825 7.99167 6.82492 2.625 13.4166 2.625C15.0383 2.625 16.6016 2.93999 18.0716 3.55832C18.4916 3.73332 18.7016 4.19997 18.5616 4.63163C18.4333 5.01663 18.3749 5.425 18.3749 5.83333C18.3749 6.52167 18.5616 7.19831 18.9233 7.78165C19.1099 8.10831 19.3549 8.39997 19.6349 8.64497C20.6499 9.56664 22.1549 9.85836 23.3333 9.43836C23.7649 9.27503 24.2549 9.49668 24.4299 9.92834C25.0599 11.41 25.3749 12.985 25.3749 14.595C25.3749 21.175 20.0083 26.5417 13.4166 26.5417ZM13.4166 4.375C7.79325 4.375 3.20825 8.94833 3.20825 14.5833C3.20825 20.2183 7.79325 24.7917 13.4166 24.7917C19.0399 24.7917 23.6249 20.2183 23.6249 14.5833C23.6249 13.4633 23.4383 12.355 23.0883 11.2933C21.4783 11.5733 19.7166 11.0717 18.4799 9.94002C18.0716 9.59002 17.7099 9.15834 17.4299 8.68C16.9166 7.84 16.6366 6.84833 16.6366 5.83333C16.6366 5.51833 16.6599 5.21503 16.7183 4.91169C15.6566 4.55003 14.5483 4.375 13.4166 4.375Z"
        fill="currentColor" />
    <path
        d="M22.1667 11.3753C20.79 11.3753 19.4833 10.862 18.4683 9.94035C18.06 9.59035 17.6983 9.15866 17.4183 8.68033C16.905 7.84033 16.625 6.84866 16.625 5.83366C16.625 5.23866 16.7183 4.65534 16.905 4.09534C17.1617 3.302 17.605 2.56699 18.2 1.97199C19.25 0.898662 20.6617 0.291992 22.1783 0.291992C23.765 0.291992 25.27 0.968679 26.2967 2.13535C27.2067 3.15035 27.72 4.45699 27.72 5.83366C27.72 6.27699 27.6617 6.72032 27.545 7.14032C27.4283 7.66532 27.2067 8.21367 26.9033 8.69201C26.2267 9.83534 25.1533 10.687 23.8933 11.0837C23.3683 11.282 22.785 11.3753 22.1667 11.3753ZM22.1667 2.04199C21.1283 2.04199 20.16 2.4503 19.4483 3.1853C19.04 3.6053 18.7483 4.08362 18.5733 4.63196C18.445 5.01696 18.3867 5.42533 18.3867 5.83366C18.3867 6.52199 18.5733 7.19864 18.935 7.78197C19.1217 8.10864 19.3667 8.40029 19.6467 8.64529C20.6617 9.56696 22.1667 9.85869 23.345 9.43869C24.2317 9.15869 24.955 8.57532 25.4217 7.79365C25.6317 7.45532 25.7717 7.09368 25.8533 6.73201C25.935 6.42868 25.97 6.13699 25.97 5.83366C25.97 4.90033 25.62 4.00201 24.99 3.30201C24.2783 2.49701 23.2517 2.04199 22.1667 2.04199Z"
        fill="currentColor" />
    <path
        d="M23.9051 6.68457H20.4167C19.9384 6.68457 19.5417 6.2879 19.5417 5.80957C19.5417 5.33124 19.9384 4.93457 20.4167 4.93457H23.9051C24.3834 4.93457 24.7801 5.33124 24.7801 5.80957C24.7801 6.2879 24.3951 6.68457 23.9051 6.68457Z"
        fill="currentColor" />
    <path
        d="M22.1667 8.46977C21.6884 8.46977 21.2917 8.0731 21.2917 7.59477V4.10645C21.2917 3.62811 21.6884 3.23145 22.1667 3.23145C22.6451 3.23145 23.0417 3.62811 23.0417 4.10645V7.59477C23.0417 8.08477 22.6451 8.46977 22.1667 8.46977Z"
        fill="currentColor" />
</svg>