<svg width="30" height="30" viewBox="0 0 30 30" fill="none" xmlns="http://www.w3.org/2000/svg">
    <path
        d="M11.6519 16.5998H15.5144V25.5998C15.5144 26.9248 17.1644 27.5498 18.0394 26.5498L27.5019 15.7998C28.3269 14.8623 27.6644 13.3998 26.4144 13.3998H22.5519V4.39984C22.5519 3.07484 20.9019 2.44984 20.0269 3.44984L10.5644 14.1998C9.75188 15.1373 10.4144 16.5998 11.6519 16.5998Z"
        fill="currentColor" />
    <path
        d="M10.625 5.9375H1.875C1.3625 5.9375 0.9375 5.5125 0.9375 5C0.9375 4.4875 1.3625 4.0625 1.875 4.0625H10.625C11.1375 4.0625 11.5625 4.4875 11.5625 5C11.5625 5.5125 11.1375 5.9375 10.625 5.9375Z"
        fill="currentColor" />
    <path
        d="M9.375 25.9375H1.875C1.3625 25.9375 0.9375 25.5125 0.9375 25C0.9375 24.4875 1.3625 24.0625 1.875 24.0625H9.375C9.8875 24.0625 10.3125 24.4875 10.3125 25C10.3125 25.5125 9.8875 25.9375 9.375 25.9375Z"
        fill="currentColor" />
    <path
        d="M5.625 15.9375H1.875C1.3625 15.9375 0.9375 15.5125 0.9375 15C0.9375 14.4875 1.3625 14.0625 1.875 14.0625H5.625C6.1375 14.0625 6.5625 14.4875 6.5625 15C6.5625 15.5125 6.1375 15.9375 5.625 15.9375Z"
        fill="currentColor" />
</svg>