<svg width="85" height="85" viewBox="0 0 85 85" fill="none" xmlns="http://www.w3.org/2000/svg">
<path d="M32.0298 38.2346C26.7098 38.2346 22.4048 33.9296 22.4048 28.6096C22.4048 23.2896 26.7098 18.9846 32.0298 18.9846C37.3498 18.9846 41.6548 23.2896 41.6548 28.6096C41.6548 33.9296 37.3498 38.2346 32.0298 38.2346ZM32.0298 24.2346C29.6148 24.2346 27.6548 26.1946 27.6548 28.6096C27.6548 31.0246 29.6148 32.9846 32.0298 32.9846C34.4448 32.9846 36.4048 31.0246 36.4048 28.6096C36.4048 26.1946 34.4448 24.2346 32.0298 24.2346Z" fill="currentColor"/>
<path d="M53.0298 80.2346H32.0298C13.0248 80.2346 4.90479 72.1146 4.90479 53.1096V32.1096C4.90479 13.1046 13.0248 4.98462 32.0298 4.98462H46.0298C47.4648 4.98462 48.6548 6.17462 48.6548 7.60962C48.6548 9.04462 47.4648 10.2346 46.0298 10.2346H32.0298C15.8948 10.2346 10.1548 15.9746 10.1548 32.1096V53.1096C10.1548 69.2446 15.8948 74.9846 32.0298 74.9846H53.0298C69.1648 74.9846 74.9048 69.2446 74.9048 53.1096V35.6096C74.9048 34.1746 76.0948 32.9846 77.5298 32.9846C78.9648 32.9846 80.1548 34.1746 80.1548 35.6096V53.1096C80.1548 72.1146 72.0348 80.2346 53.0298 80.2346Z" fill="currentColor"/>
<path d="M74.9048 20.7346H55.6548C54.2198 20.7346 53.0298 19.5446 53.0298 18.1096C53.0298 16.6746 54.2198 15.4846 55.6548 15.4846H74.9048C76.3398 15.4846 77.5298 16.6746 77.5298 18.1096C77.5298 19.5446 76.3398 20.7346 74.9048 20.7346Z" fill="currentColor"/>
<path d="M65.2798 30.3596C63.8448 30.3596 62.6548 29.1696 62.6548 27.7346V8.48462C62.6548 7.04962 63.8448 5.85962 65.2798 5.85962C66.7148 5.85962 67.9048 7.04962 67.9048 8.48462V27.7346C67.9048 29.1696 66.7148 30.3596 65.2798 30.3596Z" fill="currentColor"/>
<path d="M9.87483 69.5596C9.03483 69.5596 8.19483 69.1396 7.70483 68.4046C6.89983 67.2146 7.21483 65.5696 8.40483 64.7646L25.6598 53.1796C29.4398 50.6596 34.6548 50.9396 38.0848 53.8446L39.2398 54.8596C40.9898 56.3646 43.9648 56.3646 45.6798 54.8596L60.2398 42.3646C63.9848 39.1796 69.7948 39.1796 73.5398 42.3646L79.2448 47.2646C80.3298 48.2096 80.4698 49.8546 79.5248 50.9746C78.5798 52.0596 76.9348 52.1996 75.8148 51.2546L70.1098 46.3546C68.3598 44.8496 65.3848 44.8496 63.6698 46.3546L49.1098 58.8496C45.3998 62.0346 39.5548 62.0346 35.8098 58.8496L34.6548 57.8346C33.0448 56.4696 30.3848 56.3296 28.5998 57.5546L11.3798 69.1396C10.8898 69.4196 10.3648 69.5596 9.87483 69.5596Z" fill="currentColor"/>
</svg>
