<svg width="40" height="40" viewBox="0 0 40 40" fill="none" xmlns="http://www.w3.org/2000/svg">
<circle cx="20" cy="20" r="20" fill="#FF947A"/>
<path d="M28 20V26C28 28.21 26.21 30 24 30H16C13.79 30 12 28.21 12 26V20C12 19.45 12.45 19 13 19H14.97C15.52 19 15.97 19.45 15.97 20V23.14C15.97 23.88 16.38 24.56 17.03 24.91C17.32 25.07 17.64 25.15 17.97 25.15C18.35 25.15 18.73 25.04 19.06 24.82L20.01 24.2L20.89 24.79C21.5 25.2 22.28 25.25 22.93 24.9C23.59 24.55 24 23.88 24 23.13V20C24 19.45 24.45 19 25 19H27C27.55 19 28 19.45 28 20Z" fill="white"/>
<path d="M29.5 15V16C29.5 17.1 28.97 18 27.5 18H12.5C10.97 18 10.5 17.1 10.5 16V15C10.5 13.9 10.97 13 12.5 13H27.5C28.97 13 29.5 13.9 29.5 15Z" fill="white"/>
<path d="M19.64 13.0004H14.12C13.78 12.6304 13.79 12.0604 14.15 11.7004L15.57 10.2804C15.94 9.91043 16.55 9.91043 16.92 10.2804L19.64 13.0004Z" fill="white"/>
<path d="M25.87 13.0004H20.35L23.07 10.2804C23.44 9.91043 24.05 9.91043 24.42 10.2804L25.84 11.7004C26.2 12.0604 26.21 12.6304 25.87 13.0004Z" fill="white"/>
<path d="M21.97 19C22.52 19 22.97 19.45 22.97 20V23.13C22.97 23.93 22.08 24.41 21.42 23.96L20.52 23.36C20.19 23.14 19.76 23.14 19.42 23.36L18.48 23.98C17.82 24.42 16.94 23.94 16.94 23.15V20C16.94 19.45 17.39 19 17.94 19H21.97Z" fill="white"/>
</svg>
