<svg width="28" height="28" viewBox="0 0 28 28" fill="none" xmlns="http://www.w3.org/2000/svg">
    <path
        d="M25.6654 26.5404H5.83203C3.41703 26.5404 1.45703 24.5804 1.45703 22.1654V2.33203C1.45703 1.8537 1.8537 1.45703 2.33203 1.45703C2.81036 1.45703 3.20703 1.8537 3.20703 2.33203V22.1654C3.20703 23.612 4.38536 24.7904 5.83203 24.7904H25.6654C26.1437 24.7904 26.5404 25.187 26.5404 25.6654C26.5404 26.1437 26.1437 26.5404 25.6654 26.5404Z"
        fill="currentColor" />
    <path
        d="M5.83182 20.7094C5.63349 20.7094 5.42349 20.6394 5.26016 20.4994C4.89849 20.1844 4.85182 19.6361 5.16682 19.2628L10.5218 13.0094C11.1052 12.3328 11.9452 11.9244 12.8318 11.8894C13.7185 11.8661 14.5935 12.1927 15.2235 12.8228L16.3318 13.9311C16.6235 14.2228 17.0085 14.3628 17.4168 14.3628C17.8252 14.3511 18.1985 14.1644 18.4668 13.8494L23.8218 7.59611C24.1368 7.23444 24.6852 7.18775 25.0585 7.50275C25.4202 7.81775 25.4668 8.36608 25.1518 8.73942L19.7968 14.9928C19.2135 15.6694 18.3735 16.0778 17.4868 16.1128C16.6002 16.1361 15.7252 15.8094 15.0952 15.1794L13.9985 14.0711C13.7068 13.7794 13.3218 13.6278 12.9135 13.6394C12.5052 13.6511 12.1318 13.8378 11.8635 14.1528L6.50849 20.4061C6.32182 20.6044 6.07682 20.7094 5.83182 20.7094Z"
        fill="currentColor" />
</svg>