<svg width="24" height="24" viewBox="0 0 24 24" fill="none" xmlns="http://www.w3.org/2000/svg">
    <path
        d="M5.5702 22.7008C3.2302 22.7008 1.2502 20.7208 1.2502 18.3808V12.2208C1.2002 9.30078 2.2802 6.55078 4.3002 4.49078C6.3202 2.44078 9.0302 1.30078 11.9502 1.30078C17.9102 1.30078 22.7502 6.15078 22.7502 12.1008V18.2608C22.7502 20.6408 20.8102 22.5808 18.4302 22.5808C16.0902 22.5808 14.1102 20.6008 14.1102 18.2608V15.4508C14.1102 14.0008 15.2502 12.8608 16.7002 12.8608C18.1502 12.8608 19.2902 14.0008 19.2902 15.4508V18.4808C19.2902 18.8908 18.9502 19.2308 18.5402 19.2308C18.1302 19.2308 17.7902 18.8908 17.7902 18.4808V15.4508C17.7902 14.7708 17.2402 14.3608 16.7002 14.3608C16.0202 14.3608 15.6102 14.9108 15.6102 15.4508V18.2608C15.6102 19.7908 16.9002 21.0808 18.4302 21.0808C19.9602 21.0808 21.2502 19.7908 21.2502 18.2608V12.1008C21.2502 6.97078 17.0802 2.80078 11.9502 2.80078C9.4402 2.80078 7.1102 3.77078 5.3702 5.54078C3.6302 7.31078 2.7002 9.68078 2.7502 12.2008V18.3808C2.7502 19.9108 4.0402 21.2008 5.5702 21.2008C7.1002 21.2008 8.3902 19.9108 8.3902 18.3808V15.5708C8.3902 14.8908 7.8402 14.4808 7.3002 14.4808C6.6202 14.4808 6.2102 15.0308 6.2102 15.5708V18.4908C6.2102 18.9008 5.8702 19.2408 5.4602 19.2408C5.0502 19.2408 4.7102 18.9008 4.7102 18.4908V15.5708C4.7102 14.1208 5.8502 12.9808 7.3002 12.9808C8.7502 12.9808 9.8902 14.1208 9.8902 15.5708V18.3808C9.8902 20.7208 7.9102 22.7008 5.5702 22.7008Z"
        fill="currentColor" />
</svg>