<svg width="56" height="55" viewBox="0 0 56 55" fill="none" xmlns="http://www.w3.org/2000/svg">
<path d="M6.02611 43.5648L5.98027 43.6107C5.36152 42.2586 4.97194 40.7232 4.81152 39.0273C4.97194 40.7003 5.40736 42.2128 6.02611 43.5648Z" fill="white"/>
<path d="M20.7388 23.7872C23.7511 23.7872 26.193 21.3453 26.193 18.3331C26.193 15.3208 23.7511 12.8789 20.7388 12.8789C17.7266 12.8789 15.2847 15.3208 15.2847 18.3331C15.2847 21.3453 17.7266 23.7872 20.7388 23.7872Z" fill="white"/>
<path d="M37.216 4.58398H18.0118C9.67018 4.58398 4.69727 9.5569 4.69727 17.8986V37.1027C4.69727 39.6007 5.13268 41.7777 5.9806 43.6111C7.95143 47.9652 12.1681 50.4173 18.0118 50.4173H37.216C45.5577 50.4173 50.5306 45.4444 50.5306 37.1027V31.8548V17.8986C50.5306 9.5569 45.5577 4.58398 37.216 4.58398ZM46.7952 28.6465C45.0077 27.1111 42.1202 27.1111 40.3327 28.6465L30.7994 36.8277C29.0119 38.3632 26.1243 38.3632 24.3368 36.8277L23.5577 36.1861C21.9306 34.7652 19.341 34.6277 17.5077 35.8652L8.93685 41.6173C8.43268 40.334 8.13477 38.8444 8.13477 37.1027V17.8986C8.13477 11.4361 11.5493 8.02148 18.0118 8.02148H37.216C43.6785 8.02148 47.0931 11.4361 47.0931 17.8986V28.8986L46.7952 28.6465Z" fill="white"/>
<circle cx="40.4863" cy="38.6162" r="11.7021" fill="#F94444"/>
<path d="M37.8528 40.3713C37.3289 40.3706 36.8251 40.1692 36.4452 39.8083C36.0653 39.4475 35.8381 38.9548 35.8105 38.4316C35.7828 37.9084 35.9568 37.3944 36.2965 36.9956C36.6362 36.5967 37.1159 36.3432 37.6369 36.2873C37.4835 35.6857 37.5754 35.0479 37.8922 34.5141C38.2091 33.9802 38.7251 33.5941 39.3267 33.4408C39.9282 33.2874 40.5661 33.3792 41.0999 33.6961C41.6337 34.013 42.0198 34.529 42.1732 35.1305C42.531 35.0807 42.8952 35.1051 43.2431 35.202C43.5911 35.299 43.9154 35.4665 44.1958 35.6942C44.4762 35.9218 44.7068 36.2047 44.8732 36.5253C45.0397 36.8459 45.1383 37.1973 45.1631 37.5577C45.1879 37.9181 45.1383 38.2797 45.0173 38.62C44.8964 38.9604 44.7067 39.2722 44.46 39.5361C44.2134 39.8 43.9151 40.0104 43.5837 40.1541C43.2523 40.2977 42.8949 40.3717 42.5336 40.3713H41.0709V38.2726L41.8274 39.0291C41.9378 39.1357 42.0856 39.1947 42.239 39.1933C42.3924 39.192 42.5392 39.1305 42.6476 39.022C42.7561 38.9135 42.8177 38.7667 42.819 38.6133C42.8203 38.4599 42.7613 38.3121 42.6548 38.2018L40.8994 36.4464C40.7897 36.3368 40.6409 36.2751 40.4858 36.2751C40.3306 36.2751 40.1818 36.3368 40.0721 36.4464L38.3168 38.2018C38.2102 38.3121 38.1512 38.4599 38.1526 38.6133C38.1539 38.7667 38.2154 38.9135 38.3239 39.022C38.4324 39.1305 38.5792 39.192 38.7326 39.1933C38.886 39.1947 39.0338 39.1357 39.1441 39.0291L39.9007 38.2731V40.3713H37.8528Z" fill="white"/>
<path d="M39.9009 40.3711H41.0711V43.2966C41.0711 43.4518 41.0094 43.6006 40.8997 43.7104C40.79 43.8201 40.6412 43.8817 40.486 43.8817C40.3308 43.8817 40.182 43.8201 40.0723 43.7104C39.9625 43.6006 39.9009 43.4518 39.9009 43.2966V40.3711Z" fill="white"/>
</svg>
