<svg width="28" height="28" viewBox="0 0 28 28" fill="none" xmlns="http://www.w3.org/2000/svg">
    <path
        d="M17.4999 26.5413H10.4999C4.16492 26.5413 1.45825 23.8347 1.45825 17.4997V10.4997C1.45825 4.16467 4.16492 1.45801 10.4999 1.45801H17.4999C23.8349 1.45801 26.5416 4.16467 26.5416 10.4997V17.4997C26.5416 23.8347 23.8349 26.5413 17.4999 26.5413ZM10.4999 3.20801C5.12159 3.20801 3.20825 5.12134 3.20825 10.4997V17.4997C3.20825 22.878 5.12159 24.7913 10.4999 24.7913H17.4999C22.8783 24.7913 24.7916 22.878 24.7916 17.4997V10.4997C24.7916 5.12134 22.8783 3.20801 17.4999 3.20801H10.4999Z"
        fill="currentColor" />
    <path
        d="M18.0833 22.4587C16.31 22.4587 14.875 21.0237 14.875 19.2503V8.75033C14.875 6.97699 16.31 5.54199 18.0833 5.54199C19.8567 5.54199 21.2917 6.97699 21.2917 8.75033V19.2503C21.2917 21.0237 19.8567 22.4587 18.0833 22.4587ZM18.0833 7.29199C17.2783 7.29199 16.625 7.94533 16.625 8.75033V19.2503C16.625 20.0553 17.2783 20.7087 18.0833 20.7087C18.8883 20.7087 19.5417 20.0553 19.5417 19.2503V8.75033C19.5417 7.94533 18.8883 7.29199 18.0833 7.29199Z"
        fill="currentColor" />
    <path
        d="M9.91659 22.458C8.14325 22.458 6.70825 21.023 6.70825 19.2497V15.1663C6.70825 13.393 8.14325 11.958 9.91659 11.958C11.6899 11.958 13.1249 13.393 13.1249 15.1663V19.2497C13.1249 21.023 11.6899 22.458 9.91659 22.458ZM9.91659 13.708C9.11159 13.708 8.45825 14.3613 8.45825 15.1663V19.2497C8.45825 20.0547 9.11159 20.708 9.91659 20.708C10.7216 20.708 11.3749 20.0547 11.3749 19.2497V15.1663C11.3749 14.3613 10.7216 13.708 9.91659 13.708Z"
        fill="currentColor" />
</svg>