<svg width="28" height="28" viewBox="0 0 28 28" fill="none" xmlns="http://www.w3.org/2000/svg">
    <path
        d="M17.7799 25.9809H17.6283C12.4483 25.9809 9.9516 23.9392 9.51994 19.3659C9.47327 18.8876 9.82327 18.4559 10.3133 18.4092C10.7799 18.3626 11.2233 18.7242 11.2699 19.2026C11.6083 22.8659 13.3349 24.2309 17.6399 24.2309H17.7916C22.5399 24.2309 24.2199 22.5509 24.2199 17.8026V10.1959C24.2199 5.44758 22.5399 3.76758 17.7916 3.76758H17.6399C13.3116 3.76758 11.5849 5.15591 11.2699 8.88924C11.2116 9.36758 10.8033 9.72924 10.3133 9.68258C9.82327 9.64758 9.47327 9.21591 9.50827 8.73758C9.90494 4.09424 12.4133 2.01758 17.6283 2.01758H17.7799C23.5083 2.01758 25.9583 4.46758 25.9583 10.1959V17.8026C25.9583 23.5309 23.5083 25.9809 17.7799 25.9809Z"
        fill="currentColor" />
    <path
        d="M17.4998 14.875H4.22314C3.74481 14.875 3.34814 14.4783 3.34814 14C3.34814 13.5217 3.74481 13.125 4.22314 13.125H17.4998C17.9781 13.125 18.3748 13.5217 18.3748 14C18.3748 14.4783 17.9781 14.875 17.4998 14.875Z"
        fill="currentColor" />
    <path
        d="M6.82485 18.7825C6.60318 18.7825 6.38152 18.7008 6.20652 18.5258L2.29818 14.6175C1.95985 14.2792 1.95985 13.7192 2.29818 13.3808L6.20652 9.4725C6.54485 9.13417 7.10485 9.13417 7.44318 9.4725C7.78152 9.81083 7.78152 10.3708 7.44318 10.7092L4.15318 13.9992L7.44318 17.2892C7.78152 17.6275 7.78152 18.1875 7.44318 18.5258C7.27985 18.7008 7.04652 18.7825 6.82485 18.7825Z"
        fill="currentColor" />
</svg>