<svg width="26" height="26" viewBox="0 0 26 26" fill="none" xmlns="http://www.w3.org/2000/svg">
<path d="M8.00298 3.56353V21.7915C8.00298 22.4582 7.36761 22.9894 6.72181 22.8123C4.22197 22.104 2.79498 20.0625 2.79498 17.0418V8.31323C2.79498 5.29259 4.22197 3.25105 6.72181 2.54277C7.36761 2.36569 8.00298 2.88649 8.00298 3.56353Z" fill="currentColor"/>
<path d="M13.7005 15.1461C13.3047 15.1461 12.9922 15.469 12.9922 15.8544C12.9922 16.2398 13.3151 16.5627 13.7005 16.5627C14.0963 16.5627 14.4192 16.2398 14.4192 15.8544C14.4192 15.469 14.0963 15.1461 13.7005 15.1461Z" fill="currentColor"/>
<path d="M18.9606 14.1879C18.5648 14.1879 18.2419 14.5108 18.2419 14.9066C18.2419 15.3024 18.5648 15.6149 18.9606 15.6149C19.3564 15.6149 19.6793 15.292 19.6793 14.9066C19.6793 14.5212 19.3564 14.1879 18.9606 14.1879Z" fill="currentColor"/>
<path d="M17.5752 2.26157H10.6069C10.0341 2.26157 9.56534 2.73029 9.56534 3.30317V22.052C9.56534 22.6248 10.0341 23.0936 10.6069 23.0936H17.5752C20.9188 23.0936 23.6269 20.3854 23.6269 17.0419V8.31326C23.6269 4.96973 20.9188 2.26157 17.5752 2.26157ZM21.1271 10.3235V14.9066C21.1271 14.917 21.1167 14.9274 21.1167 14.9378C21.0959 16.1148 20.1376 17.0627 18.9606 17.0627C17.7731 17.0627 16.8045 16.094 16.8045 14.9066C16.8045 13.7192 17.7731 12.7505 18.9606 12.7505C19.2106 12.7505 19.4501 12.8026 19.6793 12.8859V11.2714L15.8566 12.313V15.8753C15.8566 15.8857 15.8462 15.8961 15.8462 15.9065C15.8254 17.0835 14.8671 18.0314 13.6901 18.0314C12.5027 18.0314 11.534 17.0627 11.534 15.8753C11.534 14.6879 12.5027 13.7192 13.6901 13.7192C13.9401 13.7192 14.1796 13.7712 14.4088 13.8546V11.7714V10.0736C14.4088 9.17779 14.9608 8.44867 15.8254 8.22993L18.6898 7.43832C19.5855 7.19875 20.1376 7.43832 20.4501 7.67789C20.8979 8.02161 21.1167 8.56325 21.1167 9.29237V10.3235H21.1271Z" fill="currentColor"/>
</svg>
