<svg width="40" height="40" viewBox="0 0 40 40" fill="none" xmlns="http://www.w3.org/2000/svg">
<circle cx="20" cy="20" r="20" fill="#4AB58E"/>
<path d="M28.89 13.1796V24.4796C28.89 26.4596 27.28 28.0696 25.3 28.0696C23.33 28.0696 21.71 26.4596 21.71 24.4796C21.71 22.5096 23.33 20.8996 25.3 20.8996C26.14 20.8996 26.89 21.1896 27.5 21.6696V15.7196L18.29 18.3396V26.4096C18.29 28.3896 16.67 29.9996 14.7 29.9996C12.72 29.9996 11.11 28.3896 11.11 26.4096C11.11 24.4396 12.72 22.8296 14.7 22.8296C15.53 22.8296 16.28 23.1196 16.89 23.5896V14.7496C16.89 13.2796 17.78 12.1396 19.19 11.7596L24.97 10.1796C26.14 9.85958 27.13 9.96958 27.83 10.5096C28.54 11.0396 28.89 11.9396 28.89 13.1796Z" fill="white"/>
</svg>
