<svg width="33" height="33" viewBox="0 0 33 33" fill="none" xmlns="http://www.w3.org/2000/svg">
    <path
        d="M28.2413 7.18922V22.1132C28.2413 24.7282 26.115 26.8545 23.5 26.8545C20.8982 26.8545 18.7587 24.7282 18.7587 22.1132C18.7587 19.5114 20.8982 17.3851 23.5 17.3851C24.6094 17.3851 25.5999 17.7681 26.4055 18.402V10.5438L14.2418 14.0041V24.6622C14.2418 27.2772 12.1023 29.4035 9.50049 29.4035C6.88549 29.4035 4.75916 27.2772 4.75916 24.6622C4.75916 22.0604 6.88549 19.934 9.50049 19.934C10.5967 19.934 11.5872 20.317 12.3928 20.9378V9.26273C12.3928 7.32129 13.5683 5.81568 15.4305 5.31381L23.0642 3.2271C24.6094 2.80447 25.9169 2.94975 26.8414 3.66293C27.7791 4.3629 28.2413 5.55154 28.2413 7.18922Z"
        fill="currentColor" />
</svg>