<svg width="28" height="28" viewBox="0 0 28 28" fill="none" xmlns="http://www.w3.org/2000/svg">
    <path
        d="M7.32677 26.5417C4.84177 26.5417 2.81177 24.5117 2.81177 22.0267C2.81177 19.5417 4.84177 17.5117 7.32677 17.5117C9.81177 17.5117 11.8418 19.5417 11.8418 22.0267C11.8418 24.5117 9.81177 26.5417 7.32677 26.5417ZM7.32677 19.2617C5.79843 19.2617 4.56177 20.4984 4.56177 22.0267C4.56177 23.5551 5.79843 24.7917 7.32677 24.7917C8.8551 24.7917 10.0918 23.5551 10.0918 22.0267C10.0918 20.4984 8.8551 19.2617 7.32677 19.2617Z"
        fill="currentColor" />
    <path
        d="M10.9666 22.9014C10.4882 22.9014 10.0916 22.5047 10.0916 22.0264V7.34975C10.0916 5.50641 11.1999 4.05975 12.9732 3.58141L20.2532 1.59808C21.7349 1.18975 22.9832 1.34141 23.8582 2.01808C24.7449 2.69475 25.1882 3.82641 25.1882 5.37808V19.6114C25.1882 20.0897 24.7916 20.4864 24.3132 20.4864C23.8349 20.4864 23.4382 20.0897 23.4382 19.6114V5.36641C23.4382 4.68975 23.3216 3.80308 22.7966 3.40641C22.2249 2.96308 21.2449 3.13808 20.7082 3.28975L13.4282 5.27308C12.4132 5.55308 11.8416 6.31141 11.8416 7.36141V22.0381C11.8416 22.5047 11.4449 22.9014 10.9666 22.9014Z"
        fill="currentColor" />
    <path
        d="M20.6734 24.115C18.1884 24.115 16.1584 22.085 16.1584 19.6C16.1584 17.115 18.1884 15.085 20.6734 15.085C23.1584 15.085 25.1884 17.115 25.1884 19.6C25.1884 22.085 23.1584 24.115 20.6734 24.115ZM20.6734 16.835C19.1451 16.835 17.9084 18.0716 17.9084 19.6C17.9084 21.1283 19.1451 22.365 20.6734 22.365C22.2018 22.365 23.4384 21.1283 23.4384 19.6C23.4384 18.0716 22.2018 16.835 20.6734 16.835Z"
        fill="currentColor" />
    <path
        d="M10.9668 11.9818C10.5818 11.9818 10.2318 11.7252 10.1268 11.3402C9.99843 10.8735 10.2668 10.3835 10.7334 10.2552L24.0801 6.61515C24.5468 6.48682 25.0251 6.76682 25.1534 7.23349C25.2818 7.70015 25.0018 8.17849 24.5351 8.30682L11.2001 11.9468C11.1184 11.9702 11.0368 11.9818 10.9668 11.9818Z"
        fill="currentColor" />
</svg>