<svg width="20" height="20" viewBox="0 0 20 20" fill="none" xmlns="http://www.w3.org/2000/svg">
    <path d="M1.93848 18.6129V4.65374C1.93848 3.15468 3.1537 1.93945 4.65276 1.93945H18.4181"
        stroke="currentColor" stroke-width="0.77551" />
    <path d="M0.387695 17.0621V3.87847C0.387695 1.95111 1.95013 0.388672 3.87749 0.388672H16.8673"
        stroke="currentColor" stroke-width="0.77551" />
    <path fill-rule="evenodd" clip-rule="evenodd"
        d="M19.3885 4.94463C19.3885 3.87388 18.5205 3.00586 17.4497 3.00586H4.94463C3.87388 3.00586 3.00586 3.87388 3.00586 4.94463V17.4497C3.00586 18.5205 3.87388 19.3885 4.94463 19.3885H17.4497C18.5205 19.3885 19.3885 18.5205 19.3885 17.4497V4.94463ZM8.72193 6.75604C8.86841 6.5962 9.06871 6.50001 9.28185 6.48716L14.7219 6.15779C14.8357 6.15093 14.9498 6.16808 15.0569 6.20818C15.1641 6.24829 15.2622 6.31052 15.3451 6.39103C15.4281 6.47155 15.4942 6.56866 15.5393 6.6764C15.5845 6.78415 15.6078 6.90025 15.6077 7.01759V14.0676C15.6077 14.0687 15.6069 14.0697 15.6058 14.0699C15.6047 14.0702 15.604 14.0712 15.6039 14.0723C15.6031 14.1418 15.6005 14.2123 15.5881 14.2848C15.4659 14.9982 14.8048 15.5764 14.1114 15.5764H12.8561C12.1628 15.5764 11.7 14.9982 11.8222 14.2848C11.9443 13.5714 12.6055 12.9931 13.2988 12.9931C14.1118 12.9931 14.7709 12.3341 14.7709 11.5211V9.15267C14.7709 9.09334 14.7589 9.03465 14.7359 8.98028C14.7128 8.92591 14.679 8.87704 14.6367 8.83673C14.5944 8.79643 14.5444 8.76555 14.49 8.74605C14.4355 8.72655 14.3777 8.71885 14.3202 8.72342L9.71744 9.08766C9.61236 9.09601 9.51421 9.14485 9.44261 9.22443C9.37101 9.30401 9.33123 9.40846 9.33123 9.51691V15.3592C9.33123 15.3603 9.33044 15.3613 9.32933 15.3616C9.32824 15.3618 9.32745 15.3628 9.32744 15.3639C9.32658 15.4335 9.324 15.5039 9.31156 15.5764C9.18938 16.2898 8.52826 16.8681 7.83491 16.8681H6.57961C5.88627 16.8681 5.42348 16.2898 5.54566 15.5764C5.66784 14.863 6.32897 14.2848 7.02231 14.2848C7.83507 14.2848 8.49394 13.6259 8.49394 12.8131V7.34696C8.4939 7.12727 8.57546 6.91588 8.72193 6.75604Z"
        fill="currentColor" />
</svg>