<svg width="248" height="64" viewBox="0 0 248 64" fill="none" xmlns="http://www.w3.org/2000/svg">
<path d="M33.9858 0C36.4971 0 38.5332 2.03903 38.5332 4.55431V59.4457C38.5332 61.9609 36.4971 64 33.9858 64C31.4744 64 29.4384 61.9609 29.4384 59.4457V4.55431C29.4384 2.03903 31.4744 0 33.9858 0ZM66.7749 0C69.2862 0 71.3223 2.03903 71.3223 4.55431V59.4457C71.3223 61.9609 69.2862 64 66.7749 64C64.2635 64 62.2275 61.9609 62.2275 59.4457V4.55431C62.2275 2.03903 64.2635 0 66.7749 0ZM50.2607 12.4644C52.772 12.4644 54.8081 14.5035 54.8081 17.0187V50.0974C54.8081 52.6126 52.772 54.6517 50.2607 54.6517C47.7493 54.6517 45.7133 52.6126 45.7133 50.0974V17.0187C45.7133 14.5035 47.7493 12.4644 50.2607 12.4644ZM19.3863 12.4644C21.8977 12.4644 23.9336 14.5035 23.9336 17.0187V39.5506C23.9336 42.0657 21.8977 44.1049 19.3863 44.1049C16.8748 44.1049 14.8389 42.0657 14.8389 39.5506V17.0187C14.8389 14.5035 16.8748 12.4644 19.3863 12.4644ZM81.6137 12.4644C84.1251 12.4644 86.1611 14.5035 86.1611 17.0187V39.5506C86.1611 42.0657 84.1251 44.1049 81.6137 44.1049C79.1024 44.1049 77.0664 42.0657 77.0664 39.5506V17.0187C77.0664 14.5035 79.1024 12.4644 81.6137 12.4644ZM4.54739 19.6554C7.05885 19.6554 9.09479 21.6945 9.09479 24.2097V29.9625C9.09479 32.4777 7.05885 34.5169 4.54739 34.5169C2.03594 34.5169 4.62614e-08 32.4777 0 29.9625V24.2097C4.62614e-08 21.6945 2.03594 19.6554 4.54739 19.6554ZM96.4526 19.6554C98.964 19.6554 101 21.6945 101 24.2097V29.9625C101 32.4777 98.964 34.5169 96.4526 34.5169C93.9412 34.5169 91.9052 32.4777 91.9052 29.9625V24.2097C91.9052 21.6945 93.9412 19.6554 96.4526 19.6554Z" fill="currentColor"/>
<path d="M231.766 50.84L236.051 39.196L236.112 42.64L226.436 18.86H230.27L237.855 37.9865H236.543L243.656 18.86H247.367L235.313 50.84H231.766Z" fill="currentColor"/>
<path d="M214.308 41V17.6505C214.308 17.0765 214.336 16.4957 214.39 15.908C214.445 15.3067 214.568 14.7258 214.759 14.1655C214.951 13.5915 215.265 13.0653 215.702 12.587C216.208 12.0267 216.761 11.6303 217.363 11.398C217.964 11.152 218.572 11.0017 219.187 10.947C219.816 10.8923 220.41 10.865 220.971 10.865H223.779V13.899H221.176C220.096 13.899 219.29 14.1655 218.757 14.6985C218.224 15.2178 217.957 16.0105 217.957 17.0765V41H214.308ZM210.557 21.8735V18.86H223.779V21.8735H210.557Z" fill="currentColor"/>
<path d="M200.757 14.9445V11.1725H204.406V14.9445H200.757ZM200.757 41V18.86H204.406V41H200.757Z" fill="currentColor"/>
<path d="M174.265 41L182.732 29.807L174.45 18.86H178.796L184.864 26.978L190.87 18.86H195.216L186.934 29.807L195.421 41H191.055L184.864 32.636L178.632 41H174.265Z" fill="currentColor"/>
<path d="M158.706 41.574C157.285 41.574 156.062 41.3485 155.037 40.8975C154.025 40.4465 153.185 39.8452 152.515 39.0935C151.845 38.3418 151.319 37.5082 150.937 36.5925C150.554 35.6768 150.281 34.7407 150.117 33.784C149.966 32.8273 149.891 31.9322 149.891 31.0985V18.86H153.581V29.9505C153.581 30.9892 153.677 31.9937 153.868 32.964C154.059 33.9343 154.381 34.809 154.832 35.588C155.296 36.367 155.911 36.982 156.677 37.433C157.456 37.884 158.426 38.1095 159.588 38.1095C160.503 38.1095 161.337 37.9523 162.089 37.638C162.84 37.3237 163.483 36.859 164.016 36.244C164.549 35.6153 164.959 34.8227 165.246 33.866C165.533 32.9093 165.676 31.7955 165.676 30.5245L168.075 31.2625C168.075 33.3945 167.685 35.2327 166.906 36.777C166.141 38.3213 165.054 39.5103 163.647 40.344C162.253 41.164 160.606 41.574 158.706 41.574ZM166.086 41V35.0755H165.676V18.86H169.346V41H166.086Z" fill="currentColor"/>
<path d="M113.987 41V11.48H117.308L128.46 34.9935L139.551 11.48H142.913V40.9795H139.448V19.4955L129.424 41H127.476L117.452 19.4955V41H113.987Z" fill="currentColor"/>
</svg>
