<svg width="22" height="22" viewBox="0 0 22 22" fill="none" xmlns="http://www.w3.org/2000/svg">
    <path
        d="M11 9.57977C10.6413 9.57977 10.3438 9.28227 10.3438 8.92352V6.00977C10.3438 5.65102 10.6413 5.35352 11 5.35352C11.3587 5.35352 11.6562 5.65102 11.6562 6.00977V8.92352C11.6562 9.29102 11.3587 9.57977 11 9.57977Z"
        fill="currentColor" />
    <path
        d="M11.0174 18.1812C8.75988 18.1812 6.51113 17.8225 4.36738 17.105C3.57113 16.8425 2.96738 16.2737 2.70488 15.5562C2.44238 14.8387 2.52988 14.0162 2.95863 13.2987L4.06988 11.4437C4.31488 11.0325 4.53363 10.2625 4.53363 9.78121V7.94371C4.53363 4.36496 7.43863 1.45996 11.0174 1.45996C14.5961 1.45996 17.5011 4.36496 17.5011 7.94371V9.78121C17.5011 10.2537 17.7199 11.0325 17.9649 11.4437L19.0761 13.2987C19.4874 13.9812 19.5574 14.795 19.2861 15.5387C19.0149 16.2825 18.4199 16.8512 17.6674 17.105C15.5236 17.8312 13.2749 18.1812 11.0174 18.1812ZM11.0174 2.78121C8.16488 2.78121 5.84613 5.09996 5.84613 7.95246V9.78996C5.84613 10.4987 5.56613 11.5225 5.19863 12.1262L4.08738 13.99C3.85988 14.3662 3.80738 14.7687 3.93863 15.1187C4.06988 15.4687 4.36738 15.7312 4.78738 15.8712C8.81238 17.21 13.2399 17.21 17.2649 15.8712C17.6411 15.7487 17.9299 15.4687 18.0611 15.1012C18.2011 14.7337 18.1574 14.3312 17.9561 13.99L16.8449 12.135C16.4774 11.5312 16.1974 10.5075 16.1974 9.79871V7.96121C16.1886 5.09996 13.8699 2.78121 11.0174 2.78121Z"
        fill="currentColor" />
    <path
        d="M10.9999 20.4128C10.0637 20.4128 9.14493 20.0278 8.47993 19.3628C7.81493 18.6978 7.42993 17.779 7.42993 16.8428H8.74243C8.74243 17.4378 8.98743 18.0153 9.40743 18.4353C9.82743 18.8553 10.4049 19.1003 10.9999 19.1003C12.2424 19.1003 13.2574 18.0853 13.2574 16.8428H14.5699C14.5699 18.8115 12.9687 20.4128 10.9999 20.4128Z"
        fill="currentColor" />
</svg>