<svg width="26" height="26" viewBox="0 0 26 26" fill="none" xmlns="http://www.w3.org/2000/svg">
    <path
        d="M13 0C20.1797 2.06162e-06 26 5.8203 26 13C26 20.1797 20.1797 26 13 26C5.8203 26 2.06169e-06 20.1797 0 13C0 5.8203 5.8203 0 13 0ZM13.002 2.48047C7.2034 2.48047 2.48264 7.2015 2.48242 13C2.48242 18.7987 7.20327 23.5205 13.002 23.5205C18.8005 23.5204 23.5215 18.7986 23.5215 13C23.5213 7.20159 18.8004 2.48062 13.002 2.48047ZM13.002 2.99414C18.5267 2.9943 23.0076 7.47528 23.0078 13C23.0078 18.5249 18.5268 23.0067 13.002 23.0068C7.47695 23.0068 2.99512 18.525 2.99512 13C2.99533 7.47518 7.47709 2.99414 13.002 2.99414ZM10.6162 8.85645C10.2561 8.85645 9.96387 9.14865 9.96387 9.50879V17.3682C9.96413 17.7281 10.2562 18.0195 10.6162 18.0195C10.9761 18.0195 11.2683 17.728 11.2686 17.3682V9.50879C11.2686 9.1487 10.9763 8.85652 10.6162 8.85645ZM15.3184 8.85645C14.9582 8.85645 14.666 9.14865 14.666 9.50879V17.3682C14.6663 17.7281 14.9584 18.0195 15.3184 18.0195C15.6781 18.0193 15.9695 17.7279 15.9697 17.3682V9.50879C15.9697 9.14879 15.6783 8.85666 15.3184 8.85645ZM12.9502 10.6406C12.5901 10.6406 12.2979 10.9328 12.2979 11.293V16.0293C12.2979 16.3894 12.5901 16.6816 12.9502 16.6816C13.3101 16.6815 13.6015 16.3893 13.6016 16.0293V11.293C13.6016 10.933 13.3102 10.6408 12.9502 10.6406ZM8.52246 10.6406C8.16237 10.6407 7.87013 10.9329 7.87012 11.293V14.5195C7.87035 14.8794 8.16251 15.1709 8.52246 15.1709C8.88245 15.1709 9.17457 14.8795 9.1748 14.5195V11.293C9.17479 10.9328 8.88259 10.6406 8.52246 10.6406ZM17.4463 10.6406C17.0862 10.6406 16.794 10.9328 16.7939 11.293V14.5195C16.7942 14.8795 17.0863 15.1709 17.4463 15.1709C17.806 15.1706 18.0974 14.8793 18.0977 14.5195V11.293C18.0976 10.933 17.8062 10.6409 17.4463 10.6406ZM6.39453 11.6709C6.03457 11.671 5.74237 11.9623 5.74219 12.3223V13.1465C5.74229 13.5065 6.03453 13.7987 6.39453 13.7988C6.7546 13.7988 7.04677 13.5065 7.04688 13.1465V12.3223C7.0467 11.9623 6.75456 11.6709 6.39453 11.6709ZM19.5732 11.6709C19.2134 11.6711 18.9221 11.9624 18.9219 12.3223V13.1465C18.922 13.5064 19.2134 13.7986 19.5732 13.7988C19.9333 13.7988 20.2255 13.5065 20.2256 13.1465V12.3223C20.2254 11.9623 19.9333 11.6709 19.5732 11.6709Z"
        fill="currentColor" />
</svg>