<svg width="40" height="40" viewBox="0 0 40 40" fill="none" xmlns="http://www.w3.org/2000/svg">
<circle cx="20" cy="20" r="20" fill="#4AB58E"/>
<path d="M19.9993 22.776C21.5328 22.776 22.776 21.5328 22.776 19.9993C22.776 18.4658 21.5328 17.2227 19.9993 17.2227C18.4658 17.2227 17.2227 18.4658 17.2227 19.9993C17.2227 21.5328 18.4658 22.776 19.9993 22.776Z" fill="white"/>
<path d="M29.3324 27.8753C29.1457 27.8753 28.9707 27.817 28.8073 27.7003C28.4223 27.4087 28.3407 26.8603 28.6323 26.4753C30.044 24.597 30.7907 22.357 30.7907 20.0003C30.7907 17.6437 30.044 15.4037 28.6323 13.5253C28.3407 13.1403 28.4223 12.592 28.8073 12.3003C29.1923 12.0087 29.7407 12.0903 30.0324 12.4753C31.6774 14.657 32.5407 17.2587 32.5407 20.0003C32.5407 22.742 31.6774 25.3437 30.0324 27.5253C29.8574 27.7587 29.6007 27.8753 29.3324 27.8753Z" fill="white"/>
<path d="M10.6654 27.8753C10.397 27.8753 10.1404 27.7587 9.96536 27.5253C8.32036 25.3437 7.45703 22.742 7.45703 20.0003C7.45703 17.2587 8.32036 14.657 9.96536 12.4753C10.257 12.0903 10.8054 12.0087 11.1904 12.3003C11.5754 12.592 11.657 13.1403 11.3654 13.5253C9.9537 15.4037 9.20703 17.6437 9.20703 20.0003C9.20703 22.357 9.9537 24.597 11.3654 26.4753C11.657 26.8603 11.5754 27.4087 11.1904 27.7003C11.0387 27.817 10.852 27.8753 10.6654 27.8753Z" fill="white"/>
<path d="M25.6019 25.0761C25.4152 25.0761 25.2402 25.0178 25.0769 24.9011C24.6919 24.6094 24.6102 24.0611 24.9019 23.6761C25.7069 22.6144 26.1269 21.3428 26.1269 20.0011C26.1269 18.6594 25.7069 17.3878 24.9019 16.3261C24.6102 15.9411 24.6919 15.3928 25.0769 15.1011C25.4619 14.8094 26.0102 14.8911 26.3019 15.2761C27.3285 16.6528 27.8769 18.2861 27.8769 20.0011C27.8769 21.7161 27.3285 23.3611 26.3019 24.7261C26.1269 24.9594 25.8702 25.0761 25.6019 25.0761Z" fill="white"/>
<path d="M14.4 25.0761C14.1317 25.0761 13.875 24.9594 13.7 24.7261C12.6733 23.3611 12.125 21.7161 12.125 20.0011C12.125 18.2861 12.6733 16.6411 13.7 15.2761C13.9917 14.8911 14.54 14.8094 14.925 15.1011C15.31 15.3928 15.3917 15.9411 15.1 16.3261C14.295 17.3878 13.875 18.6594 13.875 20.0011C13.875 21.3428 14.295 22.6144 15.1 23.6761C15.3917 24.0611 15.31 24.6094 14.925 24.9011C14.7733 25.0178 14.5867 25.0761 14.4 25.0761Z" fill="white"/>
</svg>
