<svg width="29" height="28" viewBox="0 0 29 28" fill="none" xmlns="http://www.w3.org/2000/svg">
    <path
        d="M10.615 26.5413H2.83334C2.355 26.5413 1.95834 26.1447 1.95834 25.6663V18.6663C1.95834 16.893 3.39334 15.458 5.16667 15.458H10.615C11.0933 15.458 11.49 15.8547 11.49 16.333V25.6663C11.49 26.1447 11.0933 26.5413 10.615 26.5413ZM3.70834 24.7913H9.74V17.208H5.16667C4.36167 17.208 3.70834 17.8613 3.70834 18.6663V24.7913Z"
        fill="currentColor" />
    <path
        d="M18.3852 26.542H10.6035C10.1252 26.542 9.72852 26.1453 9.72852 25.667V14.0003C9.72852 12.227 11.1635 10.792 12.9368 10.792H16.0519C17.8252 10.792 19.2602 12.227 19.2602 14.0003V25.667C19.2602 26.1453 18.8752 26.542 18.3852 26.542ZM11.4902 24.792H17.5218V14.0003C17.5218 13.1953 16.8685 12.542 16.0635 12.542H12.9485C12.1435 12.542 11.4902 13.1953 11.4902 14.0003V24.792Z"
        fill="currentColor" />
    <path
        d="M26.1668 26.5413H18.3851C17.9068 26.5413 17.5101 26.1447 17.5101 25.6663V19.833C17.5101 19.3547 17.9068 18.958 18.3851 18.958H23.8334C25.6068 18.958 27.0418 20.393 27.0418 22.1663V25.6663C27.0418 26.1447 26.6451 26.5413 26.1668 26.5413ZM19.2601 24.7913H25.2918V22.1663C25.2918 21.3613 24.6384 20.708 23.8334 20.708H19.2601V24.7913Z"
        fill="currentColor" />
    <path
        d="M16.4832 9.74161C16.2032 9.74161 15.8532 9.65992 15.4565 9.42659L14.4999 8.85493L13.5549 9.41494C12.5982 9.98661 11.9682 9.64828 11.7349 9.48494C11.5015 9.32161 10.9999 8.80827 11.2449 7.73494L11.4665 6.76659L10.6732 5.97326C10.1832 5.48326 10.0082 4.89992 10.1832 4.36326C10.3582 3.82659 10.8365 3.45325 11.5132 3.33658L12.5282 3.16159L13.0999 2.01828C13.7299 0.769948 15.2582 0.769948 15.8765 2.01828L16.4482 3.16159L17.4632 3.33658C18.1399 3.45325 18.6299 3.82659 18.7932 4.36326C18.9682 4.89992 18.7815 5.48326 18.3032 5.97326L17.5099 6.76659L17.7315 7.73494C17.9765 8.81994 17.4749 9.32162 17.2415 9.49662C17.1365 9.58995 16.8682 9.74161 16.4832 9.74161ZM14.4999 7.09325C14.7799 7.09325 15.0599 7.16328 15.2932 7.30328L15.9465 7.68826L15.8065 7.05825C15.6899 6.56825 15.8649 5.97327 16.2265 5.6116L16.8215 5.01659L16.0865 4.88827C15.6199 4.8066 15.1649 4.46827 14.9549 4.04827L14.4999 3.17327L14.0565 4.04827C13.8465 4.46827 13.3915 4.8066 12.9249 4.88827L12.1899 5.00495L12.7849 5.59992C13.1465 5.96159 13.3099 6.55661 13.2049 7.04661L13.0649 7.67659L13.7182 7.2916C13.9399 7.1516 14.2199 7.09325 14.4999 7.09325Z"
        fill="currentColor" />
</svg>