<svg width="42" height="42" viewBox="0 0 42 42" fill="none" xmlns="http://www.w3.org/2000/svg">
<path opacity="0.4" d="M35 12.32V29.68C35 32.34 34.755 34.23 34.125 35.5775C34.125 35.595 34.1075 35.63 34.09 35.6475C33.705 36.1375 33.1975 36.3825 32.6025 36.3825C31.675 36.3825 30.555 35.77 29.3475 34.475C27.9125 32.935 25.7074 33.0575 24.4474 34.7375L22.68 37.0825C21.98 38.0275 21.0525 38.5 20.125 38.5C19.1975 38.5 18.27 38.0275 17.57 37.0825L15.785 34.72C14.5425 33.0575 12.355 32.935 10.92 34.4575L10.9025 34.475C8.92497 36.5925 7.17503 36.9075 6.16003 35.6475C6.14253 35.63 6.125 35.595 6.125 35.5775C5.495 34.23 5.25 32.34 5.25 29.68V12.32C5.25 9.66 5.495 7.77 6.125 6.4225C6.125 6.405 6.12503 6.3875 6.16003 6.37C7.15753 5.0925 8.92497 5.4075 10.9025 7.525L10.92 7.5425C12.355 9.065 14.5425 8.9425 15.785 7.28L17.57 4.9175C18.27 3.9725 19.1975 3.5 20.125 3.5C21.0525 3.5 21.98 3.9725 22.68 4.9175L24.4474 7.2625C25.7074 8.9425 27.9125 9.065 29.3475 7.525C30.555 6.23 31.675 5.6175 32.6025 5.6175C33.1975 5.6175 33.705 5.88 34.09 6.37C34.125 6.3875 34.125 6.405 34.125 6.4225C34.755 7.77 35 9.66 35 12.32Z" fill="#F94444"/>
<path d="M28 19.25H14C13.2825 19.25 12.6875 18.655 12.6875 17.9375C12.6875 17.22 13.2825 16.625 14 16.625H28C28.7175 16.625 29.3125 17.22 29.3125 17.9375C29.3125 18.655 28.7175 19.25 28 19.25Z" fill="#F94444"/>
<path d="M24.5 25.375H14C13.2825 25.375 12.6875 24.78 12.6875 24.0625C12.6875 23.345 13.2825 22.75 14 22.75H24.5C25.2175 22.75 25.8125 23.345 25.8125 24.0625C25.8125 24.78 25.2175 25.375 24.5 25.375Z" fill="#F94444"/>
</svg>
