<svg width="28" height="28" viewBox="0 0 28 28" fill="none" xmlns="http://www.w3.org/2000/svg">
    <path
        d="M25.6666 26.5413H5.83325C3.41825 26.5413 1.45825 24.5813 1.45825 22.1663V2.33301C1.45825 1.85467 1.85492 1.45801 2.33325 1.45801C2.81159 1.45801 3.20825 1.85467 3.20825 2.33301V22.1663C3.20825 23.613 4.38659 24.7913 5.83325 24.7913H25.6666C26.1449 24.7913 26.5416 25.188 26.5416 25.6663C26.5416 26.1447 26.1449 26.5413 25.6666 26.5413Z"
        fill="currentColor" />
    <path
        d="M5.83304 20.7085C5.63471 20.7085 5.42471 20.6385 5.26138 20.4985C4.89971 20.1835 4.85304 19.6351 5.16804 19.2618L10.523 13.0084C11.1064 12.3318 11.9464 11.9235 12.833 11.8885C13.7197 11.8651 14.5947 12.1918 15.2247 12.8218L16.333 13.9301C16.6247 14.2218 17.0097 14.3618 17.418 14.3618C17.8264 14.3501 18.1997 14.1634 18.468 13.8484L23.823 7.59513C24.138 7.23346 24.6864 7.18678 25.0597 7.50178C25.4214 7.81678 25.468 8.36511 25.153 8.73844L19.798 14.9918C19.2147 15.6685 18.3747 16.0768 17.488 16.1118C16.6014 16.1351 15.7264 15.8085 15.0964 15.1785L13.9997 14.0701C13.708 13.7784 13.323 13.6268 12.9147 13.6385C12.5064 13.6501 12.133 13.8368 11.8647 14.1518L6.50971 20.4051C6.32304 20.6034 6.07804 20.7085 5.83304 20.7085Z"
        fill="currentColor" />
</svg>