<svg width="28" height="28" viewBox="0 0 28 28" fill="none" xmlns="http://www.w3.org/2000/svg">
    <path
        d="M14 18.375C11.585 18.375 9.625 16.415 9.625 14C9.625 11.585 11.585 9.625 14 9.625C16.415 9.625 18.375 11.585 18.375 14C18.375 16.415 16.415 18.375 14 18.375ZM14 11.375C12.5533 11.375 11.375 12.5533 11.375 14C11.375 15.4467 12.5533 16.625 14 16.625C15.4467 16.625 16.625 15.4467 16.625 14C16.625 12.5533 15.4467 11.375 14 11.375Z"
        fill="currentColor" />
    <path
        d="M17.7452 25.8874C17.5002 25.8874 17.2552 25.8524 17.0102 25.794C16.2868 25.5957 15.6802 25.1407 15.2952 24.499L15.1552 24.2657C14.4668 23.0757 13.5218 23.0757 12.8335 24.2657L12.7052 24.4874C12.3202 25.1407 11.7135 25.6074 10.9902 25.794C10.2552 25.9924 9.49683 25.8874 8.85516 25.5024L6.8485 24.3474C6.13683 23.939 5.6235 23.274 5.40183 22.469C5.19183 21.664 5.29683 20.8357 5.70516 20.124C6.0435 19.529 6.13683 18.9924 5.9385 18.654C5.74016 18.3157 5.2385 18.1174 4.55016 18.1174C2.84683 18.1174 1.4585 16.729 1.4585 15.0257V12.9724C1.4585 11.269 2.84683 9.8807 4.55016 9.8807C5.2385 9.8807 5.74016 9.68237 5.9385 9.34403C6.13683 9.0057 6.05516 8.46903 5.70516 7.87403C5.29683 7.16237 5.19183 6.32236 5.40183 5.52903C5.61183 4.72403 6.12516 4.05903 6.8485 3.6507L8.86683 2.4957C10.1852 1.71403 11.9235 2.16903 12.7168 3.5107L12.8568 3.74403C13.5452 4.93403 14.4902 4.93403 15.1785 3.74403L15.3068 3.52237C16.1002 2.16903 17.8385 1.71403 19.1685 2.50737L21.1752 3.66237C21.8868 4.0707 22.4002 4.7357 22.6218 5.5407C22.8318 6.3457 22.7268 7.17403 22.3185 7.8857C21.9802 8.4807 21.8868 9.01737 22.0852 9.3557C22.2835 9.69403 22.7852 9.89236 23.4735 9.89236C25.1768 9.89236 26.5652 11.2807 26.5652 12.984V15.0374C26.5652 16.7407 25.1768 18.129 23.4735 18.129C22.7852 18.129 22.2835 18.3274 22.0852 18.6657C21.8868 19.004 21.9685 19.5407 22.3185 20.1357C22.7268 20.8474 22.8435 21.6874 22.6218 22.4807C22.4118 23.2857 21.8985 23.9507 21.1752 24.359L19.1568 25.514C18.7135 25.759 18.2352 25.8874 17.7452 25.8874ZM14.0002 21.5707C15.0385 21.5707 16.0068 22.224 16.6718 23.379L16.8002 23.6007C16.9402 23.8457 17.1735 24.0207 17.4535 24.0907C17.7335 24.1607 18.0135 24.1257 18.2468 23.9857L20.2652 22.819C20.5685 22.644 20.8018 22.3524 20.8952 22.0024C20.9885 21.6524 20.9418 21.2907 20.7668 20.9874C20.1018 19.844 20.0202 18.6657 20.5335 17.7674C21.0468 16.869 22.1085 16.3557 23.4385 16.3557C24.1852 16.3557 24.7802 15.7607 24.7802 15.014V12.9607C24.7802 12.2257 24.1852 11.619 23.4385 11.619C22.1085 11.619 21.0468 11.1057 20.5335 10.2074C20.0202 9.30903 20.1018 8.1307 20.7668 6.98737C20.9418 6.68403 20.9885 6.32237 20.8952 5.97237C20.8018 5.62236 20.5802 5.34237 20.2768 5.1557L18.2585 4.0007C17.7568 3.69737 17.0918 3.87237 16.7885 4.3857L16.6602 4.60737C15.9952 5.76237 15.0268 6.4157 13.9885 6.4157C12.9502 6.4157 11.9818 5.76237 11.3168 4.60737L11.1885 4.37403C10.8968 3.88403 10.2435 3.70903 9.74183 4.0007L7.7235 5.16737C7.42016 5.34237 7.18683 5.63403 7.0935 5.98403C7.00016 6.33403 7.04683 6.6957 7.22183 6.99903C7.88683 8.14237 7.9685 9.3207 7.45516 10.219C6.94183 11.1174 5.88016 11.6307 4.55016 11.6307C3.8035 11.6307 3.2085 12.2257 3.2085 12.9724V15.0257C3.2085 15.7607 3.8035 16.3674 4.55016 16.3674C5.88016 16.3674 6.94183 16.8807 7.45516 17.779C7.9685 18.6774 7.88683 19.8557 7.22183 20.999C7.04683 21.3024 7.00016 21.664 7.0935 22.014C7.18683 22.364 7.4085 22.644 7.71183 22.8307L9.73016 23.9857C9.97516 24.1374 10.2668 24.1724 10.5352 24.1024C10.8152 24.0324 11.0485 23.8457 11.2002 23.6007L11.3285 23.379C11.9935 22.2357 12.9618 21.5707 14.0002 21.5707Z"
        fill="currentColor" />
</svg>