<svg width="28" height="28" viewBox="0 0 28 28" fill="none" xmlns="http://www.w3.org/2000/svg">
    <path
        d="M8.02734 22.0517C7.54901 22.0517 7.15234 21.6551 7.15234 21.1767V18.7617C7.15234 18.2834 7.54901 17.8867 8.02734 17.8867C8.50568 17.8867 8.90234 18.2834 8.90234 18.7617V21.1767C8.90234 21.6667 8.50568 22.0517 8.02734 22.0517Z"
        fill="currentColor" />
    <path
        d="M14 22.0487C13.5217 22.0487 13.125 21.652 13.125 21.1737V16.332C13.125 15.8537 13.5217 15.457 14 15.457C14.4783 15.457 14.875 15.8537 14.875 16.332V21.1737C14.875 21.6637 14.4783 22.0487 14 22.0487Z"
        fill="currentColor" />
    <path
        d="M19.9727 22.0496C19.4943 22.0496 19.0977 21.653 19.0977 21.1746V13.918C19.0977 13.4396 19.4943 13.043 19.9727 13.043C20.451 13.043 20.8477 13.4396 20.8477 13.918V21.1746C20.8477 21.6646 20.4627 22.0496 19.9727 22.0496Z"
        fill="currentColor" />
    <path
        d="M8.02651 15.3757C7.62984 15.3757 7.27984 15.1073 7.17484 14.7107C7.05817 14.244 7.33817 13.7657 7.81651 13.649C12.1098 12.5757 15.8898 10.2307 18.7715 6.88234L19.3082 6.25234C19.6232 5.89068 20.1715 5.84401 20.5448 6.15901C20.9065 6.47401 20.9532 7.02234 20.6382 7.39568L20.1015 8.02568C16.9865 11.6657 12.8798 14.1973 8.23651 15.3523C8.16651 15.3757 8.09651 15.3757 8.02651 15.3757Z"
        fill="currentColor" />
    <path
        d="M19.973 11.1059C19.4947 11.1059 19.098 10.7092 19.098 10.2309V7.69922H16.5547C16.0764 7.69922 15.6797 7.30255 15.6797 6.82422C15.6797 6.34589 16.0764 5.94922 16.5547 5.94922H19.973C20.4514 5.94922 20.848 6.34589 20.848 6.82422V10.2426C20.848 10.7209 20.463 11.1059 19.973 11.1059Z"
        fill="currentColor" />
    <path
        d="M17.4987 26.5404H10.4987C4.1637 26.5404 1.45703 23.8337 1.45703 17.4987V10.4987C1.45703 4.1637 4.1637 1.45703 10.4987 1.45703H17.4987C23.8337 1.45703 26.5404 4.1637 26.5404 10.4987V17.4987C26.5404 23.8337 23.8337 26.5404 17.4987 26.5404ZM10.4987 3.20703C5.12036 3.20703 3.20703 5.12036 3.20703 10.4987V17.4987C3.20703 22.877 5.12036 24.7904 10.4987 24.7904H17.4987C22.877 24.7904 24.7904 22.877 24.7904 17.4987V10.4987C24.7904 5.12036 22.877 3.20703 17.4987 3.20703H10.4987Z"
        fill="currentColor" />
</svg>