<svg width="103" height="103" viewBox="0 0 103 103" fill="none" xmlns="http://www.w3.org/2000/svg">
<path d="M27.3079 9.3111C31.4248 8.98241 35.3329 7.36314 38.4759 4.6839C42.0257 1.66049 46.5362 0 51.1991 0C55.862 0 60.3725 1.66049 63.9223 4.6839C67.0653 7.36314 70.9734 8.98241 75.0903 9.3111C79.7395 9.68266 84.1043 11.6981 87.4022 14.996C90.7001 18.2939 92.7155 22.6587 93.0871 27.3079C93.4135 31.4231 95.0327 35.3335 97.7143 38.4759C100.738 42.0257 102.398 46.5362 102.398 51.1991C102.398 55.862 100.738 60.3725 97.7143 63.9223C95.0351 67.0653 93.4158 70.9734 93.0871 75.0903C92.7155 79.7395 90.7001 84.1043 87.4022 87.4022C84.1043 90.7001 79.7395 92.7155 75.0903 93.0871C70.9734 93.4158 67.0653 95.0351 63.9223 97.7143C60.3725 100.738 55.862 102.398 51.1991 102.398C46.5362 102.398 42.0257 100.738 38.4759 97.7143C35.3329 95.0351 31.4248 93.4158 27.3079 93.0871C22.6587 92.7155 18.2939 90.7001 14.996 87.4022C11.6981 84.1043 9.68266 79.7395 9.3111 75.0903C8.98241 70.9734 7.36314 67.0653 4.6839 63.9223C1.66049 60.3725 0 55.862 0 51.1991C0 46.5362 1.66049 42.0257 4.6839 38.4759C7.36314 35.3329 8.98241 31.4248 9.3111 27.3079C9.68266 22.6587 11.6981 18.2939 14.996 14.996C18.2939 11.6981 22.6587 9.68266 27.3079 9.3111ZM74.9239 42.9239C76.0897 41.7168 76.7348 40.1002 76.7202 38.4221C76.7056 36.7441 76.0326 35.1389 74.8459 33.9523C73.6593 32.7657 72.0541 32.0926 70.3761 32.078C68.698 32.0634 67.0814 32.7085 65.8743 33.8743L44.7991 54.9495L36.5239 46.6743C35.3168 45.5085 33.7002 44.8634 32.0221 44.878C30.3441 44.8926 28.7389 45.5657 27.5523 46.7523C26.3657 47.9389 25.6926 49.5441 25.678 51.2221C25.6634 52.9002 26.3085 54.5168 27.4743 55.7239L40.2743 68.5239C41.4745 69.7237 43.1021 70.3977 44.7991 70.3977C46.4962 70.3977 48.1237 69.7237 49.3239 68.5239L74.9239 42.9239Z" fill="#4AB58E"/>
</svg>
