<svg width="56" height="55" viewBox="0 0 56 55" fill="none" xmlns="http://www.w3.org/2000/svg">
<path d="M41.3626 50.4164H13.8626C11.3313 50.4164 9.2793 48.3644 9.2793 45.8331V9.16639C9.2793 6.63508 11.3313 4.58305 13.8626 4.58305H29.9043C29.9248 4.58039 29.9456 4.58039 29.9662 4.58305H29.9799C30.0016 4.58983 30.0238 4.59444 30.0464 4.5968C30.2485 4.60976 30.448 4.64905 30.6399 4.71368H30.6743H30.7087H30.7362C30.7785 4.7433 30.8183 4.77625 30.8553 4.81222C31.105 4.92319 31.3325 5.07847 31.5268 5.27055L45.2768 19.0206C45.4689 19.2149 45.6242 19.4423 45.7351 19.692C45.7558 19.7424 45.7718 19.7906 45.7878 19.8433L45.8108 19.9074C45.8747 20.0985 45.9125 20.2974 45.923 20.4987C45.925 20.5215 45.9305 20.5439 45.9391 20.5651V20.5789C45.9429 20.5939 45.9452 20.6093 45.946 20.6247V45.8331C45.946 47.0486 45.4631 48.2144 44.6035 49.074C43.744 49.9335 42.5782 50.4164 41.3626 50.4164ZM29.9043 9.16639V20.6247H41.3626L29.9043 9.16639Z" fill="white"/>
<circle cx="43.0814" cy="41.2503" r="11.4583" fill="#F94444"/>
<g clip-path="url(#clip0_187_16116)">
<path d="M40.5045 42.9686C39.9915 42.9679 39.4982 42.7706 39.1262 42.4173C38.7543 42.064 38.5318 41.5816 38.5048 41.0693C38.4777 40.5569 38.648 40.0537 38.9806 39.6632C39.3133 39.2726 39.783 39.0244 40.2931 38.9696C40.1429 38.3806 40.2329 37.7561 40.5432 37.2333C40.8535 36.7106 41.3587 36.3326 41.9477 36.1824C42.5367 36.0322 43.1613 36.1221 43.684 36.4324C44.2067 36.7427 44.5847 37.248 44.7349 37.837C45.0853 37.7882 45.4418 37.812 45.7826 37.907C46.1233 38.0019 46.4408 38.166 46.7154 38.3889C46.99 38.6118 47.2158 38.8888 47.3787 39.2027C47.5417 39.5166 47.6383 39.8607 47.6625 40.2136C47.6868 40.5664 47.6382 40.9205 47.5198 41.2538C47.4013 41.5871 47.2156 41.8924 46.9741 42.1508C46.7326 42.4092 46.4405 42.6152 46.116 42.7559C45.7915 42.8965 45.4415 42.969 45.0879 42.9686H43.6556V40.9136L44.3963 41.6543C44.5044 41.7587 44.6491 41.8164 44.7993 41.8151C44.9496 41.8138 45.0933 41.7536 45.1995 41.6474C45.3057 41.5411 45.366 41.3974 45.3673 41.2472C45.3686 41.097 45.3108 40.9523 45.2065 40.8442L43.4877 39.1255C43.3803 39.0181 43.2346 38.9577 43.0827 38.9577C42.9307 38.9577 42.785 39.0181 42.6776 39.1255L40.9588 40.8442C40.8545 40.9523 40.7967 41.097 40.798 41.2472C40.7994 41.3974 40.8596 41.5411 40.9658 41.6474C41.0721 41.7536 41.2157 41.8138 41.366 41.8151C41.5162 41.8164 41.6609 41.7587 41.769 41.6543L42.5097 40.9141V42.9686H40.5045Z" fill="white"/>
<path d="M42.5098 42.9688H43.6556V45.8333C43.6556 45.9853 43.5952 46.131 43.4878 46.2384C43.3804 46.3459 43.2346 46.4062 43.0827 46.4062C42.9307 46.4062 42.785 46.3459 42.6776 46.2384C42.5701 46.131 42.5098 45.9853 42.5098 45.8333V42.9688Z" fill="white"/>
</g>
<defs>
<clipPath id="clip0_187_16116">
<rect width="11.4583" height="11.4583" fill="white" transform="translate(37.3535 35.5205)"/>
</clipPath>
</defs>
</svg>
