<svg width="14" height="14" viewBox="0 0 14 14" fill="none" xmlns="http://www.w3.org/2000/svg">
    <path fill-rule="evenodd" clip-rule="evenodd"
        d="M10.1007 4.11196L7.43899 1.83077C7.31472 1.72183 7.15784 1.6661 7.00013 1.66602C6.89223 1.66596 6.78393 1.69196 6.68544 1.7448C6.64154 1.76828 6.59984 1.79696 6.56128 1.83077L3.89959 4.11196C3.62003 4.35156 3.58763 4.77242 3.82723 5.05198C4.06683 5.33155 4.4877 5.36395 4.76726 5.12435L6.33342 3.78207V8.94516C6.33342 9.31335 6.6319 9.61183 7.00009 9.61183C7.36828 9.61183 7.66676 9.31335 7.66676 8.94516L7.66676 3.782L9.23301 5.12435C9.51257 5.36395 9.93344 5.33155 10.173 5.05198C10.4126 4.77242 10.3802 4.35156 10.1007 4.11196ZM3.00008 8.33268C3.00008 7.96449 3.29856 7.66602 3.66675 7.66602H4.66675C5.03494 7.66602 5.33341 7.36754 5.33341 6.99935C5.33341 6.63116 5.03494 6.33268 4.66675 6.33268H3.66675C2.56218 6.33268 1.66675 7.22811 1.66675 8.33268V10.3327C1.66675 11.4373 2.56218 12.3327 3.66675 12.3327H10.3334C11.438 12.3327 12.3334 11.4373 12.3334 10.3327V8.33268C12.3334 7.22811 11.438 6.33268 10.3334 6.33268H9.33342C8.96522 6.33268 8.66675 6.63116 8.66675 6.99935C8.66675 7.36754 8.96522 7.66602 9.33342 7.66602H10.3334C10.7016 7.66602 11.0001 7.96449 11.0001 8.33268V10.3327C11.0001 10.7009 10.7016 10.9993 10.3334 10.9993H3.66675C3.29856 10.9993 3.00008 10.7009 3.00008 10.3327V8.33268Z"
        fill="currentColor" />
</svg>