<svg width="85" height="85" viewBox="0 0 85 85" fill="none" xmlns="http://www.w3.org/2000/svg">
<path d="M38.2947 53.7047C37.5947 53.7047 36.9297 53.4247 36.4397 52.9347L27.9697 44.4647C26.9547 43.4497 26.9547 41.7697 27.9697 40.7547C28.9847 39.7397 30.6647 39.7397 31.6797 40.7547L38.2947 47.3697L53.3447 32.3197C54.3597 31.3047 56.0397 31.3047 57.0547 32.3197C58.0697 33.3347 58.0697 35.0147 57.0547 36.0297L40.1497 52.9347C39.6597 53.4247 38.9947 53.7047 38.2947 53.7047Z" fill="currentColor"/>
<path d="M42.5299 80.2346C40.3249 80.2346 38.1199 79.4996 36.4049 78.0297L30.8749 73.2697C30.3149 72.7796 28.9149 72.2896 28.1799 72.2896H22.1599C16.9799 72.2896 12.7799 68.0896 12.7799 62.9096V56.9247C12.7799 56.1897 12.2899 54.8246 11.7999 54.2646L7.07486 48.6996C4.20486 45.3046 4.20486 39.9496 7.07486 36.5547L11.7999 30.9897C12.2899 30.4297 12.7799 29.0646 12.7799 28.3297V22.3096C12.7799 17.1296 16.9799 12.9296 22.1599 12.9296H28.2149C28.9499 12.9296 30.3499 12.4046 30.9099 11.9496L36.4399 7.18965C39.8699 4.24965 45.2249 4.24965 48.6549 7.18965L54.1849 11.9496C54.7449 12.4396 56.1449 12.9296 56.8799 12.9296H62.8299C68.0099 12.9296 72.2099 17.1296 72.2099 22.3096V28.2596C72.2099 28.9946 72.7349 30.3946 73.2249 30.9547L77.9849 36.4846C80.9249 39.9146 80.9249 45.2696 77.9849 48.6996L73.2249 54.2296C72.7349 54.7896 72.2099 56.1897 72.2099 56.9247V62.8747C72.2099 68.0547 68.0099 72.2546 62.8299 72.2546H56.8799C56.1449 72.2546 54.7449 72.7796 54.1849 73.2346L48.6549 77.9947C46.9399 79.4996 44.7349 80.2346 42.5299 80.2346ZM22.1599 18.1796C19.8849 18.1796 18.0299 20.0346 18.0299 22.3096V28.2946C18.0299 30.2896 17.0849 32.8447 15.7899 34.3497L11.0649 39.9146C9.83986 41.3496 9.83986 43.8347 11.0649 45.2696L15.7899 50.8347C17.0849 52.3747 18.0299 54.8946 18.0299 56.8896V62.8747C18.0299 65.1497 19.8849 67.0046 22.1599 67.0046H28.2149C30.2449 67.0046 32.7999 67.9497 34.3399 69.2797L39.8699 74.0396C41.3049 75.2646 43.8249 75.2646 45.2599 74.0396L50.7899 69.2797C52.3299 67.9847 54.8849 67.0046 56.9149 67.0046H62.8649C65.1399 67.0046 66.9949 65.1497 66.9949 62.8747V56.9247C66.9949 54.8946 67.9399 52.3396 69.2699 50.7997L74.0299 45.2696C75.2549 43.8347 75.2549 41.3147 74.0299 39.8797L69.2699 34.3497C67.9399 32.8097 66.9949 30.2546 66.9949 28.2246V22.3096C66.9949 20.0346 65.1399 18.1796 62.8649 18.1796H56.9149C54.8849 18.1796 52.3299 17.2346 50.7899 15.9046L45.2599 11.1446C43.8249 9.91965 41.3049 9.91965 39.8699 11.1446L34.3399 15.9396C32.7999 17.2346 30.2099 18.1796 28.2149 18.1796H22.1599Z" fill="currentColor"/>
</svg>
