<svg width="28" height="28" viewBox="0 0 28 28" fill="none" xmlns="http://www.w3.org/2000/svg">
    <path
        d="M8.36412 26.5435C5.58745 26.5435 3.3125 24.5252 3.3125 22.0402V19.6602C3.3125 19.1818 3.70917 18.7852 4.1875 18.7852C4.66583 18.7852 5.0625 19.1818 5.0625 19.6602C5.0625 21.1185 6.47412 22.2152 8.36412 22.2152C10.2541 22.2152 11.6658 21.1185 11.6658 19.6602C11.6658 19.1818 12.0625 18.7852 12.5408 18.7852C13.0191 18.7852 13.4158 19.1818 13.4158 19.6602V22.0402C13.4158 24.5252 11.1524 26.5435 8.36412 26.5435ZM5.36577 23.1835C5.87911 24.1402 7.03412 24.7935 8.36412 24.7935C9.69412 24.7935 10.8491 24.1285 11.3625 23.1835C10.5341 23.6852 9.50745 23.9768 8.36412 23.9768C7.22078 23.9768 6.19411 23.6852 5.36577 23.1835Z"
        fill="currentColor" />
    <path
        d="M8.36412 20.765C6.45078 20.765 4.73582 19.89 3.88416 18.5017C3.51082 17.895 3.3125 17.1834 3.3125 16.46C3.3125 15.235 3.84915 14.0917 4.82915 13.24C6.71915 11.5834 9.97413 11.5834 11.8758 13.2284C12.8558 14.0918 13.4041 15.235 13.4041 16.46C13.4041 17.1834 13.2058 17.895 12.8325 18.5017C11.9925 19.89 10.2774 20.765 8.36412 20.765ZM8.36412 13.7067C7.45412 13.7067 6.61414 14.01 5.98414 14.5584C5.38914 15.0717 5.0625 15.7484 5.0625 16.46C5.0625 16.8684 5.16745 17.2417 5.37745 17.5917C5.91412 18.4784 7.05745 19.0267 8.36412 19.0267C9.67078 19.0267 10.8141 18.4784 11.3391 17.6034C11.5491 17.2651 11.6541 16.88 11.6541 16.4717C11.6541 15.76 11.3275 15.0834 10.7325 14.5584C10.1142 14.01 9.27412 13.7067 8.36412 13.7067Z"
        fill="currentColor" />
    <path
        d="M8.36412 23.9737C5.48245 23.9737 3.3125 22.1187 3.3125 19.6687V16.4603C3.3125 13.9753 5.57578 11.957 8.36412 11.957C9.68245 11.957 10.9425 12.4121 11.8875 13.2287C12.8675 14.0921 13.4158 15.2353 13.4158 16.4603V19.6687C13.4158 22.1187 11.2458 23.9737 8.36412 23.9737ZM8.36412 13.707C6.54412 13.707 5.0625 14.9437 5.0625 16.4603V19.6687C5.0625 21.127 6.47412 22.2237 8.36412 22.2237C10.2541 22.2237 11.6658 21.127 11.6658 19.6687V16.4603C11.6658 15.7487 11.3392 15.072 10.7442 14.547C10.1142 14.0103 9.27412 13.707 8.36412 13.707Z"
        fill="currentColor" />
    <path
        d="M22.2145 17.2677C20.4528 17.2677 18.9595 15.961 18.8195 14.281C18.7262 13.3127 19.0762 12.3677 19.7762 11.6794C20.3595 11.0727 21.1878 10.7344 22.0628 10.7344H24.5012C25.6562 10.7694 26.5429 11.6793 26.5429 12.7993V15.2027C26.5429 16.3227 25.6562 17.2327 24.5362 17.2677H22.2145ZM24.4662 12.4844H22.0745C21.6662 12.4844 21.2929 12.636 21.0246 12.916C20.6862 13.2427 20.5229 13.686 20.5695 14.1293C20.6279 14.8993 21.3745 15.5177 22.2145 15.5177H24.5012C24.6529 15.5177 24.7929 15.3777 24.7929 15.2027V12.7993C24.7929 12.6243 24.6528 12.496 24.4662 12.4844Z"
        fill="currentColor" />
    <path
        d="M18.6653 24.7904H15.7487C15.2703 24.7904 14.8737 24.3937 14.8737 23.9154C14.8737 23.437 15.2703 23.0404 15.7487 23.0404H18.6653C21.6753 23.0404 23.6237 21.092 23.6237 18.082V17.2654H22.212C20.4503 17.2654 18.957 15.9587 18.817 14.2787C18.7237 13.3104 19.0737 12.3654 19.7737 11.677C20.357 11.0704 21.1853 10.732 22.0603 10.732H23.612V9.91537C23.612 7.18536 22.0137 5.30701 19.4237 5.00367C19.1437 4.95701 18.8986 4.95703 18.6536 4.95703H8.15365C7.87365 4.95703 7.6053 4.98035 7.33696 5.01535C4.7703 5.34202 3.19531 7.2087 3.19531 9.91537V12.2487C3.19531 12.727 2.79865 13.1237 2.32031 13.1237C1.84198 13.1237 1.44531 12.727 1.44531 12.2487V9.91537C1.44531 6.32203 3.66202 3.72037 7.10369 3.28871C7.41869 3.24204 7.78031 3.20703 8.15365 3.20703H18.6536C18.9336 3.20703 19.2953 3.2187 19.6686 3.27703C23.1103 3.6737 25.362 6.28703 25.362 9.91537V11.607C25.362 12.0854 24.9653 12.482 24.487 12.482H22.0603C21.652 12.482 21.2787 12.6337 21.0103 12.9137C20.672 13.2404 20.5087 13.6837 20.5553 14.127C20.6137 14.897 21.3604 15.5154 22.2004 15.5154H24.4987C24.977 15.5154 25.3737 15.912 25.3737 16.3904V18.082C25.3737 22.0954 22.6787 24.7904 18.6653 24.7904Z"
        fill="currentColor" />
</svg>