<svg width="35" height="35" viewBox="0 0 35 35" fill="none" xmlns="http://www.w3.org/2000/svg">
<path d="M12.6319 8C13.3437 8 13.9207 8.57701 13.9207 9.28878V24.822C13.9207 25.5337 13.3437 26.1107 12.6319 26.1107C11.9202 26.1107 11.3431 25.5337 11.3431 24.822V9.28878C11.3431 8.57701 11.9202 8 12.6319 8ZM21.9247 8C22.6364 8 23.2135 8.57701 23.2135 9.28878V24.822C23.2135 25.5337 22.6364 26.1107 21.9247 26.1107C21.213 26.1107 20.6359 25.5337 20.6359 24.822V9.28878C20.6359 8.57701 21.213 8 21.9247 8ZM17.2444 11.5272C17.9561 11.5272 18.5332 12.1042 18.5332 12.816V22.1766C18.5332 22.8883 17.9561 23.4653 17.2444 23.4653C16.5327 23.4653 15.9556 22.8883 15.9556 22.1766V12.816C15.9556 12.1042 16.5327 11.5272 17.2444 11.5272ZM8.49427 11.5272C9.20604 11.5272 9.78305 12.1042 9.78305 12.816V19.192C9.78305 19.9038 9.20604 20.4808 8.49427 20.4808C7.7825 20.4808 7.20549 19.9038 7.20549 19.192V12.816C7.20549 12.1042 7.7825 11.5272 8.49427 11.5272ZM26.1302 11.5272C26.8419 11.5272 27.419 12.1042 27.419 12.816V19.192C27.419 19.9038 26.8419 20.4808 26.1302 20.4808C25.4184 20.4808 24.8414 19.9038 24.8414 19.192V12.816C24.8414 12.1042 25.4184 11.5272 26.1302 11.5272ZM4.28878 13.5621C5.00055 13.5621 5.57756 14.1391 5.57756 14.8509V16.4788C5.57756 17.1906 5.00055 17.7676 4.28878 17.7676C3.57701 17.7676 3 17.1906 3 16.4788V14.8509C3 14.1391 3.57701 13.5621 4.28878 13.5621ZM30.3357 13.5621C31.0474 13.5621 31.6245 14.1391 31.6245 14.8509V16.4788C31.6245 17.1906 31.0474 17.7676 30.3357 17.7676C29.6239 17.7676 29.0469 17.1906 29.0469 16.4788V14.8509C29.0469 14.1391 29.6239 13.5621 30.3357 13.5621Z" fill="#F94444"/>
</svg>
